<?xml version="1.0" encoding="UTF-8" standalone="no"?>
<!-- Created with Inkscape (http://www.inkscape.org/) -->

<svg
   width="146.68066mm"
   height="146.68066mm"
   viewBox="0 0 733.39966 733.39966"
   version="1.1"
   id="svg1"
   xml:space="preserve"
   xmlns="http://www.w3.org/2000/svg"
   xmlns:svg="http://www.w3.org/2000/svg"><defs
     id="defs1" /><g
     id="layer1"
     transform="translate(-111.34909,-148.87769)"><path
       style="fill:#7e6eee;fill-opacity:1"
       d="m 111.34909,793.76358 v -88.5137 h 88.51375 88.51375 v 88.5137 88.5138 h -88.51375 -88.51375 z m 151.73785,0 v -63.2241 h -63.2241 -63.2241 v 63.2241 63.2241 h 63.2241 63.2241 z m -101.15857,0 v -37.9345 h 37.93447 37.93446 v 37.9345 37.9345 h -37.93446 -37.93447 z m 227.6068,84.2988 c 0,-2.3182 -1.89672,-4.2149 -4.21494,-4.2149 -2.31822,0 -4.21494,-1.8967 -4.21494,-4.215 0,-2.3182 1.89672,-4.2149 4.21494,-4.2149 2.31822,0 4.21494,-1.8967 4.21494,-4.2149 0,-2.3183 -1.89672,-4.215 -4.21494,-4.215 -2.31822,0 -4.21494,-1.8967 -4.21494,-4.2149 0,-2.3182 -1.89673,-4.215 -4.21494,-4.215 -2.31822,0 -4.21494,-1.8967 -4.21494,-4.2149 0,-2.3182 1.89672,-4.2149 4.21494,-4.2149 2.80996,0 4.21494,-2.81 4.21494,-8.4299 0,-5.6199 -1.40498,-8.4299 -4.21494,-8.4299 -2.31822,0 -4.21494,-1.8967 -4.21494,-4.2149 0,-2.3183 1.89672,-4.215 4.21494,-4.215 3.479,0 4.21494,-5.1516 4.21494,-29.5046 0,-24.353 -0.73594,-29.5046 -4.21494,-29.5046 -2.31822,0 -4.21494,-1.8967 -4.21494,-4.2149 0,-2.3182 1.89672,-4.2149 4.21494,-4.2149 2.31821,0 4.21494,1.8967 4.21494,4.2149 0,2.3182 1.89672,4.2149 4.21494,4.2149 3.12218,0 4.21494,3.2783 4.21494,12.6449 0,9.3665 1.09276,12.6448 4.21494,12.6448 2.31822,0 4.21494,1.8967 4.21494,4.2149 0,2.3182 1.89672,4.215 4.21494,4.215 2.31822,0 4.21494,1.8967 4.21494,4.2149 0,2.3182 -1.89672,4.215 -4.21494,4.215 -3.37195,0 -4.21494,4.2149 -4.21494,21.0747 0,16.8597 0.84299,21.0747 4.21494,21.0747 2.31822,0 4.21494,1.8967 4.21494,4.2149 0,2.3182 -1.89672,4.2149 -4.21494,4.2149 -2.80996,0 -4.21494,2.81 -4.21494,8.4299 0,5.6199 1.40498,8.4299 4.21494,8.4299 2.31822,0 4.21494,1.8967 4.21494,4.2149 0,2.3183 -1.89672,4.215 -4.21494,4.215 -2.31822,0 -4.21494,1.8967 -4.21494,4.2149 0,2.3182 -1.89672,4.215 -4.21494,4.215 -2.31822,0 -4.21494,-1.8968 -4.21494,-4.215 z m 67.43905,0 c 0,-2.3182 -1.89673,-4.2149 -4.21494,-4.2149 -2.31822,0 -4.21494,-1.8967 -4.21494,-4.215 0,-2.3182 1.89672,-4.2149 4.21494,-4.2149 2.31821,0 4.21494,1.8967 4.21494,4.2149 0,2.3183 1.89672,4.215 4.21494,4.215 2.80996,0 4.21494,-2.81 4.21494,-8.4299 0,-5.6199 -1.40498,-8.4299 -4.21494,-8.4299 -2.31822,0 -4.21494,-1.8967 -4.21494,-4.2149 0,-2.3182 -1.89673,-4.215 -4.21494,-4.215 -2.31822,0 -4.21494,-1.8967 -4.21494,-4.2149 0,-2.3182 1.89672,-4.2149 4.21494,-4.2149 2.31821,0 4.21494,1.8967 4.21494,4.2149 0,2.3182 1.89672,4.2149 4.21494,4.2149 2.80996,0 4.21494,-2.8099 4.21494,-8.4298 0,-5.62 1.40498,-8.4299 4.21494,-8.4299 2.80996,0 4.21494,2.8099 4.21494,8.4299 0,5.6199 1.40498,8.4298 4.21494,8.4298 3.12218,0 4.21494,-3.2782 4.21494,-12.6448 0,-9.3665 -1.09276,-12.6448 -4.21494,-12.6448 -2.31822,0 -4.21494,-1.8967 -4.21494,-4.2149 0,-2.81 2.80996,-4.215 8.42988,-4.215 7.49323,0 8.42988,-0.9366 8.42988,-8.4299 0,-5.6199 -1.40498,-8.4298 -4.21494,-8.4298 -2.31822,0 -4.21494,1.8967 -4.21494,4.2149 0,2.3182 -1.89672,4.2149 -4.21494,4.2149 -3.12218,0 -4.21494,-3.2783 -4.21494,-12.6448 0,-12.1765 0.31222,-12.6448 8.42988,-12.6448 5.61992,0 8.42988,-1.405 8.42988,-4.215 0,-2.8099 -2.80996,-4.2149 -8.42988,-4.2149 -5.61992,0 -8.42988,1.405 -8.42988,4.2149 0,2.3183 -1.89672,4.215 -4.21494,4.215 -2.31822,0 -4.21494,-1.8967 -4.21494,-4.215 0,-2.3182 -1.89672,-4.2149 -4.21494,-4.2149 -2.31822,0 -4.21494,-1.8967 -4.21494,-4.2149 0,-2.3182 -1.89673,-4.215 -4.21494,-4.215 -2.31822,0 -4.21494,1.8968 -4.21494,4.215 0,2.3182 1.89672,4.2149 4.21494,4.2149 2.31821,0 4.21494,1.8967 4.21494,4.2149 0,2.3183 -1.89673,4.215 -4.21494,4.215 -2.31822,0 -4.21494,1.8967 -4.21494,4.2149 0,2.3182 -1.89673,4.215 -4.21494,4.215 -2.31822,0 -4.21494,1.8967 -4.21494,4.2149 0,2.3182 -1.89673,4.215 -4.21495,4.215 -2.31821,0 -4.21494,1.8967 -4.21494,4.2149 0,2.3182 -1.89672,4.2149 -4.21494,4.2149 -2.80996,0 -4.21494,-2.8099 -4.21494,-8.4298 0,-5.62 1.40498,-8.4299 4.21494,-8.4299 2.80996,0 4.21494,-2.81 4.21494,-8.4299 0,-5.6199 -1.40498,-8.4299 -4.21494,-8.4299 -2.31821,0 -4.21494,-1.8967 -4.21494,-4.2149 0,-2.3182 1.89673,-4.215 4.21494,-4.215 2.31822,0 4.21494,1.8968 4.21494,4.215 0,2.3182 1.89673,4.2149 4.21494,4.2149 2.80996,0 4.21495,-2.81 4.21495,-8.4299 0,-5.6199 1.40498,-8.4299 4.21494,-8.4299 2.31821,0 4.21494,-1.8967 4.21494,-4.2149 0,-2.3182 1.89672,-4.2149 4.21494,-4.2149 2.31821,0 4.21494,-1.8968 4.21494,-4.215 0,-2.3182 1.89672,-4.2149 4.21494,-4.2149 3.12218,0 4.21494,3.2783 4.21494,12.6448 v 12.6448 h 12.64482 c 9.36653,0 12.64482,-1.0927 12.64482,-4.2149 0,-2.3182 -1.89672,-4.215 -4.21494,-4.215 -2.80996,0 -4.21494,-2.8099 -4.21494,-8.4298 0,-5.62 -1.40498,-8.4299 -4.21494,-8.4299 -2.31822,0 -4.21494,-1.8967 -4.21494,-4.215 0,-2.3182 -1.89672,-4.2149 -4.21494,-4.2149 -2.80996,0 -4.21494,-2.81 -4.21494,-8.4299 0,-8.1176 0.46833,-8.4299 12.64482,-8.4299 9.36653,0 12.64482,1.0928 12.64482,4.215 0,2.3182 1.89672,4.2149 4.21494,4.2149 2.31822,0 4.21494,1.8967 4.21494,4.215 0,2.8099 2.80996,4.2149 8.42988,4.2149 5.61992,0 8.42988,1.405 8.42988,4.2149 0,2.3183 1.89673,4.215 4.21495,4.215 2.31821,0 4.21494,1.8967 4.21494,4.2149 0,2.3182 1.89672,4.215 4.21494,4.215 2.80996,0 4.21494,2.8099 4.21494,8.4298 0,5.62 1.40498,8.4299 4.21494,8.4299 2.31821,0 4.21494,1.8968 4.21494,4.215 0,2.3182 1.89672,4.2149 4.21494,4.2149 2.31822,0 4.21494,-1.8967 4.21494,-4.2149 0,-2.3182 1.89672,-4.215 4.21494,-4.215 2.31822,0 4.21494,1.8968 4.21494,4.215 0,2.3182 -1.89672,4.2149 -4.21494,4.2149 -2.80996,0 -4.21494,2.81 -4.21494,8.4299 0,5.6199 1.40498,8.4299 4.21494,8.4299 2.31822,0 4.21494,1.8967 4.21494,4.2149 0,2.3182 -1.89672,4.215 -4.21494,4.215 -2.31822,0 -4.21494,-1.8968 -4.21494,-4.215 0,-2.3182 -1.89672,-4.2149 -4.21494,-4.2149 -3.53847,0 -4.21494,6.0882 -4.21494,37.9344 0,31.8463 -0.67647,37.9345 -4.21494,37.9345 -2.31822,0 -4.21494,-1.8967 -4.21494,-4.2149 0,-2.3183 -1.89673,-4.215 -4.21494,-4.215 -2.31822,0 -4.21494,-1.8967 -4.21494,-4.2149 0,-2.3182 1.89672,-4.215 4.21494,-4.215 2.31821,0 4.21494,-1.8967 4.21494,-4.2149 0,-2.3182 -1.89673,-4.2149 -4.21494,-4.2149 -2.31822,0 -4.21494,-1.8968 -4.21494,-4.215 0,-2.3182 1.89672,-4.2149 4.21494,-4.2149 2.31821,0 4.21494,-1.8967 4.21494,-4.215 0,-2.3182 -1.89673,-4.2149 -4.21494,-4.2149 -3.12218,0 -4.21494,-3.2783 -4.21494,-12.6448 0,-9.3666 1.09276,-12.6448 4.21494,-12.6448 2.31821,0 4.21494,-1.8968 4.21494,-4.215 0,-2.3182 -1.89673,-4.2149 -4.21494,-4.2149 -2.31822,0 -4.21494,1.8967 -4.21494,4.2149 0,2.3182 -1.89673,4.215 -4.21494,4.215 -2.31822,0 -4.21495,-1.8968 -4.21495,-4.215 0,-2.3182 -1.89672,-4.2149 -4.21494,-4.2149 -3.27828,0 -4.21494,3.7466 -4.21494,16.8597 0,13.1132 0.93666,16.8598 4.21494,16.8598 2.31822,0 4.21494,1.8967 4.21494,4.2149 0,2.3183 -1.89672,4.215 -4.21494,4.215 -2.31821,0 -4.21494,1.8967 -4.21494,4.2149 0,2.3182 1.89673,4.215 4.21494,4.215 3.37196,0 4.21494,4.2149 4.21494,21.0747 v 21.0747 H 486.4788 c -24.35299,0 -29.50458,-0.736 -29.50458,-4.215 z m 25.28964,-8.4299 c 0,-2.3182 1.89672,-4.2149 4.21494,-4.2149 2.31822,0 4.21494,-1.8967 4.21494,-4.2149 0,-2.3183 -1.89672,-4.215 -4.21494,-4.215 -2.31822,0 -4.21494,1.8967 -4.21494,4.215 0,2.3182 -1.89672,4.2149 -4.21494,4.2149 -2.31822,0 -4.21494,1.8967 -4.21494,4.2149 0,2.3183 1.89672,4.215 4.21494,4.215 2.31822,0 4.21494,-1.8967 4.21494,-4.215 z m 25.28964,-101.1585 c 0,-2.3182 1.89673,-4.215 4.21494,-4.215 2.31822,0 4.21494,1.8968 4.21494,4.215 0,2.8099 2.80996,4.2149 8.42989,4.2149 5.61992,0 8.42988,-1.405 8.42988,-4.2149 0,-2.3182 -1.89673,-4.215 -4.21494,-4.215 -2.31822,0 -4.21494,-1.8967 -4.21494,-4.2149 0,-2.3182 -1.89673,-4.215 -4.21494,-4.215 -2.31822,0 -4.21495,-1.8967 -4.21495,-4.2149 0,-2.3182 -1.89672,-4.2149 -4.21494,-4.2149 -2.31821,0 -4.21494,-1.8968 -4.21494,-4.215 0,-2.3182 -1.89672,-4.2149 -4.21494,-4.2149 -2.31821,0 -4.21494,1.8967 -4.21494,4.2149 0,2.3182 1.89673,4.215 4.21494,4.215 2.80996,0 4.21494,2.8099 4.21494,8.4298 0,5.62 -1.40498,8.4299 -4.21494,8.4299 -2.31821,0 -4.21494,1.8968 -4.21494,4.215 0,2.3182 1.89673,4.2149 4.21494,4.2149 2.31822,0 4.21494,-1.8967 4.21494,-4.2149 z m 25.28965,109.5884 c 0,-2.3182 1.89672,-4.2149 4.21494,-4.2149 2.31821,0 4.21494,1.8967 4.21494,4.2149 0,2.3182 -1.89673,4.215 -4.21494,4.215 -2.31822,0 -4.21494,-1.8968 -4.21494,-4.215 z m 92.72869,0 c 0,-2.3182 1.89672,-4.2149 4.21494,-4.2149 2.31822,0 4.21494,-1.8967 4.21494,-4.215 0,-2.3182 -1.89672,-4.2149 -4.21494,-4.2149 -2.80996,0 -4.21494,-2.81 -4.21494,-8.4299 0,-5.6199 1.40498,-8.4299 4.21494,-8.4299 2.31822,0 4.21494,-1.8967 4.21494,-4.2149 0,-2.3182 -1.89672,-4.2149 -4.21494,-4.2149 -3.27829,0 -4.21494,-3.7467 -4.21494,-16.8598 0,-13.1132 -0.93666,-16.8598 -4.21494,-16.8598 -2.80996,0 -4.21494,-2.8099 -4.21494,-8.4298 0,-5.62 -1.40498,-8.4299 -4.21494,-8.4299 -3.4344,0 -4.21494,-4.6833 -4.21494,-25.2897 0,-20.6063 -0.78055,-25.2896 -4.21494,-25.2896 -2.80996,0 -4.21494,2.8099 -4.21494,8.4299 0,5.6199 -1.40499,8.4298 -4.21495,8.4298 -2.80996,0 -4.21494,-2.8099 -4.21494,-8.4298 0,-5.62 1.40498,-8.4299 4.21494,-8.4299 2.31822,0 4.21495,-1.8967 4.21495,-4.215 0,-2.3182 -1.89673,-4.2149 -4.21495,-4.2149 -2.31821,0 -4.21494,-1.8967 -4.21494,-4.2149 0,-2.3183 1.89673,-4.215 4.21494,-4.215 2.80996,0 4.21495,-2.8099 4.21495,-8.4299 0,-5.6199 -1.40499,-8.4298 -4.21495,-8.4298 -2.80996,0 -4.21494,-2.81 -4.21494,-8.4299 0,-5.6199 -1.40498,-8.4299 -4.21494,-8.4299 -2.80996,0 -4.21494,-2.81 -4.21494,-8.4299 0,-5.6199 -1.40498,-8.4299 -4.21494,-8.4299 -2.31821,0 -4.21494,-1.8967 -4.21494,-4.2149 0,-2.3182 1.89673,-4.2149 4.21494,-4.2149 2.31822,0 4.21494,-1.8968 4.21494,-4.215 0,-2.3182 -1.89672,-4.2149 -4.21494,-4.2149 -2.31821,0 -4.21494,1.8967 -4.21494,4.2149 0,2.3182 -1.89672,4.215 -4.21494,4.215 -2.31822,0 -4.21494,1.8967 -4.21494,4.2149 0,2.3182 -1.89672,4.2149 -4.21494,4.2149 -2.31822,0 -4.21494,1.8968 -4.21494,4.215 0,2.3182 -1.89672,4.2149 -4.21494,4.2149 -2.31822,0 -4.21494,1.8967 -4.21494,4.215 0,2.3182 1.89672,4.2149 4.21494,4.2149 2.31822,0 4.21494,1.8967 4.21494,4.2149 0,2.3183 -1.89672,4.215 -4.21494,4.215 -2.31822,0 -4.21494,-1.8967 -4.21494,-4.215 0,-2.3182 -1.89672,-4.2149 -4.21494,-4.2149 -2.31822,0 -4.21494,1.8967 -4.21494,4.2149 0,2.3183 -1.89673,4.215 -4.21494,4.215 -2.31822,0 -4.21494,-1.8967 -4.21494,-4.215 0,-2.3182 1.89672,-4.2149 4.21494,-4.2149 2.80996,0 4.21494,-2.81 4.21494,-8.4299 0,-5.6199 1.40498,-8.4299 4.21494,-8.4299 3.43439,0 4.21494,-4.6832 4.21494,-25.2896 0,-20.6064 -0.78055,-25.2897 -4.21494,-25.2897 -2.31822,0 -4.21494,1.8968 -4.21494,4.215 0,2.3182 -1.89673,4.2149 -4.21494,4.2149 -2.80996,0 -4.21494,2.81 -4.21494,8.4299 0,5.6199 -1.40498,8.4299 -4.21494,8.4299 -2.31822,0 -4.21494,-1.8967 -4.21494,-4.2149 0,-2.3183 -1.89673,-4.215 -4.21494,-4.215 -2.31822,0 -4.21495,1.8967 -4.21495,4.215 0,2.3182 -1.89672,4.2149 -4.21494,4.2149 -3.12217,0 -4.21494,3.2783 -4.21494,12.6448 0,9.3665 -1.09276,12.6448 -4.21494,12.6448 -2.80996,0 -4.21494,-2.8099 -4.21494,-8.4298 0,-7.4933 -0.93665,-8.4299 -8.42988,-8.4299 -5.61992,0 -8.42988,-1.405 -8.42988,-4.215 0,-3.1221 -3.27829,-4.2149 -12.64482,-4.2149 -9.36654,0 -12.64482,-1.0928 -12.64482,-4.2149 0,-3.1222 -3.27829,-4.215 -12.64482,-4.215 -9.36654,0 -12.64483,1.0928 -12.64483,4.215 0,2.3182 -1.89672,4.2149 -4.21494,4.2149 -2.31821,0 -4.21494,-1.8967 -4.21494,-4.2149 0,-2.3183 1.89673,-4.215 4.21494,-4.215 2.31822,0 4.21494,-1.8967 4.21494,-4.2149 0,-2.3182 -1.89672,-4.215 -4.21494,-4.215 -2.31821,0 -4.21494,-1.8967 -4.21494,-4.2149 0,-2.3182 -1.89672,-4.215 -4.21494,-4.215 -2.31821,0 -4.21494,-1.8967 -4.21494,-4.2149 0,-2.3182 -1.89672,-4.2149 -4.21494,-4.2149 -2.31822,0 -4.21494,-1.8968 -4.21494,-4.215 0,-2.8099 -2.80996,-4.2149 -8.42988,-4.2149 -5.61992,0 -8.42988,-1.405 -8.42988,-4.215 0,-2.3182 -1.89672,-4.2149 -4.21494,-4.2149 -2.31822,0 -4.21494,-1.8967 -4.21494,-4.2149 0,-2.3183 -1.89673,-4.215 -4.21494,-4.215 -2.31822,0 -4.21494,1.8967 -4.21494,4.215 0,2.3182 1.89672,4.2149 4.21494,4.2149 2.80996,0 4.21494,2.81 4.21494,8.4299 0,5.6199 -1.40498,8.4299 -4.21494,8.4299 -2.31822,0 -4.21494,1.8967 -4.21494,4.2149 0,2.3182 1.89672,4.2149 4.21494,4.2149 2.31821,0 4.21494,-1.8967 4.21494,-4.2149 0,-2.3182 1.89672,-4.2149 4.21494,-4.2149 2.31822,0 4.21494,1.8967 4.21494,4.2149 0,2.3182 -1.89672,4.2149 -4.21494,4.2149 -3.4344,0 -4.21494,4.6833 -4.21494,25.2897 0,20.6064 -0.78055,25.2896 -4.21494,25.2896 -2.31822,0 -4.21494,1.8968 -4.21494,4.215 0,2.3182 -1.89673,4.2149 -4.21494,4.2149 -2.31822,0 -4.21494,-1.8967 -4.21494,-4.2149 0,-2.3182 -1.89673,-4.215 -4.21494,-4.215 -2.31822,0 -4.21495,-1.8967 -4.21495,-4.2149 0,-2.3182 -1.89672,-4.2149 -4.21494,-4.2149 -2.31821,0 -4.21494,1.8967 -4.21494,4.2149 0,2.3182 -1.89673,4.2149 -4.21495,4.2149 -2.31821,0 -4.21494,1.8968 -4.21494,4.215 0,2.8099 -2.80996,4.2149 -8.42988,4.2149 -5.61992,0 -8.42988,-1.405 -8.42988,-4.2149 0,-3.1222 -3.27829,-4.215 -12.64482,-4.215 -12.1765,0 -12.64482,-0.3122 -12.64482,-8.4298 0,-5.62 1.40498,-8.4299 4.21494,-8.4299 2.31822,0 4.21494,-1.8967 4.21494,-4.215 0,-2.3182 -1.89672,-4.2149 -4.21494,-4.2149 -2.31822,0 -4.21494,-1.8967 -4.21494,-4.2149 0,-3.1222 3.27828,-4.215 12.64482,-4.215 12.17649,0 12.64482,-0.3122 12.64482,-8.4299 0,-5.6199 -1.40498,-8.4299 -4.21494,-8.4299 -2.31822,0 -4.21494,1.8968 -4.21494,4.215 0,2.3182 -1.89672,4.2149 -4.21494,4.2149 -2.31822,0 -4.21494,-1.8967 -4.21494,-4.2149 0,-2.81 -2.80996,-4.215 -8.42988,-4.215 -5.61992,0 -8.42988,1.405 -8.42988,4.215 0,3.1222 -3.27829,4.2149 -12.64483,4.2149 h -12.64482 v -12.6448 -12.6448 h 12.64482 c 9.36654,0 12.64483,-1.0928 12.64483,-4.215 0,-2.3182 1.89672,-4.2149 4.21494,-4.2149 2.31821,0 4.21494,-1.8967 4.21494,-4.2149 0,-2.3183 -1.89673,-4.215 -4.21494,-4.215 -2.31822,0 -4.21494,-1.8967 -4.21494,-4.2149 0,-2.3182 1.89672,-4.215 4.21494,-4.215 2.80996,0 4.21494,-2.8099 4.21494,-8.4298 0,-5.62 1.40498,-8.4299 4.21494,-8.4299 2.31822,0 4.21494,-1.8967 4.21494,-4.215 0,-2.3182 1.89672,-4.2149 4.21494,-4.2149 2.31822,0 4.21494,-1.8967 4.21494,-4.2149 0,-2.3183 -1.89672,-4.215 -4.21494,-4.215 -2.31822,0 -4.21494,1.8967 -4.21494,4.215 0,2.8099 -2.80996,4.2149 -8.42988,4.2149 -8.11767,0 -8.42988,0.4683 -8.42988,12.6448 v 12.6448 h -12.64483 -12.64482 v -12.6448 -12.6448 h 12.64482 c 9.36654,0 12.64483,-1.0928 12.64483,-4.2149 0,-2.3183 1.89672,-4.215 4.21494,-4.215 2.31821,0 4.21494,-1.8967 4.21494,-4.2149 0,-2.3182 1.89672,-4.215 4.21494,-4.215 3.12218,0 4.21494,-3.2782 4.21494,-12.6448 0,-9.3665 -1.09276,-12.6448 -4.21494,-12.6448 -2.80996,0 -4.21494,2.81 -4.21494,8.4299 v 8.4299 h -16.85976 c -13.11315,0 -16.85977,0.9366 -16.85977,4.2149 0,2.3182 -1.89672,4.2149 -4.21494,4.2149 -2.31821,0 -4.21494,1.8968 -4.21494,4.215 0,2.3182 -1.89672,4.2149 -4.21494,4.2149 -2.31822,0 -4.21494,-1.8967 -4.21494,-4.2149 0,-2.3182 1.89672,-4.215 4.21494,-4.215 2.31822,0 4.21494,-1.8967 4.21494,-4.2149 0,-2.3182 1.89673,-4.2149 4.21494,-4.2149 2.31822,0 4.21494,-1.8968 4.21494,-4.215 0,-2.8099 -2.80996,-4.2149 -8.42988,-4.2149 -7.49323,0 -8.42988,-0.9367 -8.42988,-8.4299 0,-5.6199 1.40498,-8.4299 4.21494,-8.4299 2.31822,0 4.21494,1.8967 4.21494,4.215 0,2.3182 1.89673,4.2149 4.21494,4.2149 2.31822,0 4.21494,-1.8967 4.21494,-4.2149 0,-3.2783 3.74662,-4.215 16.85977,-4.215 13.11314,0 16.85976,-0.9366 16.85976,-4.2149 0,-2.3182 -1.89673,-4.215 -4.21494,-4.215 -2.80996,0 -4.21494,-2.8099 -4.21494,-8.4298 0,-8.1177 -0.46833,-8.4299 -12.64483,-8.4299 -12.17649,0 -12.64482,0.3122 -12.64482,8.4299 0,7.4932 -0.93665,8.4298 -8.42988,8.4298 -7.49323,0 -8.42988,-0.9366 -8.42988,-8.4298 0,-7.4933 -0.93665,-8.4299 -8.42988,-8.4299 -5.61992,0 -8.42988,-1.405 -8.42988,-4.215 0,-2.3182 1.89672,-4.2149 4.21494,-4.2149 2.31822,0 4.21494,-1.8967 4.21494,-4.2149 0,-2.3183 1.89672,-4.215 4.21494,-4.215 2.31822,0 4.21494,-1.8967 4.21494,-4.2149 0,-2.3182 1.89672,-4.215 4.21494,-4.215 2.31822,0 4.21494,1.8968 4.21494,4.215 0,2.3182 -1.89672,4.2149 -4.21494,4.2149 -2.31822,0 -4.21494,1.8967 -4.21494,4.215 0,2.3182 1.89672,4.2149 4.21494,4.2149 2.31822,0 4.21494,-1.8967 4.21494,-4.2149 0,-2.3183 1.89673,-4.215 4.21494,-4.215 2.31822,0 4.21494,-1.8967 4.21494,-4.2149 0,-3.1222 3.27829,-4.215 12.64482,-4.215 h 12.64483 v -12.6448 -12.6448 h -12.64483 -12.64482 v -12.6448 -12.6449 h 16.85977 c 13.11314,0 16.85976,-0.9366 16.85976,-4.2149 0,-2.3182 1.89672,-4.2149 4.21494,-4.2149 2.80996,0 4.21494,-2.81 4.21494,-8.4299 0,-5.6199 -1.40498,-8.4299 -4.21494,-8.4299 -2.31822,0 -4.21494,1.8967 -4.21494,4.2149 0,2.3183 -1.89673,4.215 -4.21494,4.215 -2.31822,0 -4.21494,-1.8967 -4.21494,-4.215 0,-3.1221 -3.27829,-4.2149 -12.64483,-4.2149 h -12.64482 v -12.6448 -12.6448 h 12.64482 c 9.36654,0 12.64483,1.0927 12.64483,4.2149 0,2.3182 1.89672,4.2149 4.21494,4.2149 2.31821,0 4.21494,-1.8967 4.21494,-4.2149 0,-2.81 2.80996,-4.2149 8.42988,-4.2149 h 8.42988 v -33.7196 c 0,-28.0996 0.70249,-33.7195 4.21494,-33.7195 2.31822,0 4.21494,-1.8967 4.21494,-4.2149 0,-2.3183 -1.89672,-4.215 -4.21494,-4.215 -2.31822,0 -4.21494,-1.8967 -4.21494,-4.2149 0,-2.3182 1.89672,-4.215 4.21494,-4.215 2.31822,0 4.21494,-1.8967 4.21494,-4.2149 0,-2.81 2.80996,-4.2149 8.42988,-4.2149 5.61992,0 8.42988,-1.405 8.42988,-4.215 0,-2.3182 -1.89672,-4.2149 -4.21494,-4.2149 -2.31822,0 -4.21494,-1.8967 -4.21494,-4.215 0,-2.3182 1.89672,-4.2149 4.21494,-4.2149 2.31822,0 4.21494,-1.8967 4.21494,-4.2149 0,-2.81 -2.80996,-4.215 -8.42988,-4.215 -5.61992,0 -8.42988,-1.405 -8.42988,-4.2149 0,-2.3182 1.89672,-4.215 4.21494,-4.215 3.53847,0 4.21494,-6.0882 4.21494,-37.9344 v -37.9345 h 16.85977 16.85977 v 25.2897 c 0,20.6063 -0.78055,25.2896 -4.21494,25.2896 -2.31822,0 -4.21495,1.8967 -4.21495,4.2149 0,2.3183 -1.89672,4.215 -4.21494,4.215 -2.31821,0 -4.21494,1.8967 -4.21494,4.2149 0,2.3182 -1.89673,4.215 -4.21495,4.215 -2.31821,0 -4.21494,1.8967 -4.21494,4.2149 0,2.3182 1.89673,4.2149 4.21494,4.2149 2.31822,0 4.21495,-1.8967 4.21495,-4.2149 0,-2.3182 1.89673,-4.2149 4.21494,-4.2149 2.31822,0 4.21494,-1.8968 4.21494,-4.215 0,-2.3182 1.89673,-4.2149 4.21495,-4.2149 3.12217,0 4.21494,3.2783 4.21494,12.6448 0,12.1765 -0.31222,12.6448 -8.42989,12.6448 -7.49322,0 -8.42988,0.9367 -8.42988,8.4299 0,5.6199 1.40498,8.4299 4.21494,8.4299 2.31822,0 4.21494,-1.8967 4.21494,-4.215 0,-2.3182 1.89673,-4.2149 4.21495,-4.2149 2.31821,0 4.21494,-1.8967 4.21494,-4.2149 0,-2.3183 1.89672,-4.215 4.21494,-4.215 2.31821,0 4.21494,-1.8967 4.21494,-4.2149 0,-2.81 2.80996,-4.215 8.42988,-4.215 7.49323,0 8.42988,-0.9366 8.42988,-8.4298 0,-5.62 1.40498,-8.4299 4.21494,-8.4299 2.80996,0 4.21494,-2.81 4.21494,-8.4299 0,-7.4932 0.93665,-8.4299 8.42988,-8.4299 5.61992,0 8.42988,-1.405 8.42988,-4.2149 0,-2.3182 1.89673,-4.215 4.21494,-4.215 2.31822,0 4.21494,1.8968 4.21494,4.215 0,2.3182 1.89673,4.2149 4.21494,4.2149 2.80996,0 4.21494,-2.8099 4.21494,-8.4299 0,-7.4932 0.93666,-8.4298 8.42989,-8.4298 7.49322,0 8.42988,-0.9367 8.42988,-8.4299 0,-5.6199 1.40498,-8.4299 4.21494,-8.4299 2.31821,0 4.21494,1.8967 4.21494,4.2149 0,2.81 2.80996,4.215 8.42988,4.215 5.61992,0 8.42988,-1.405 8.42988,-4.215 0,-2.3182 1.89672,-4.2149 4.21494,-4.2149 2.31822,0 4.21494,1.8967 4.21494,4.2149 0,2.81 2.80996,4.215 8.42988,4.215 5.61992,0 8.42988,-1.405 8.42988,-4.215 0,-2.3182 1.89673,-4.2149 4.21494,-4.2149 2.31822,0 4.21494,1.8967 4.21494,4.2149 0,2.81 2.80996,4.215 8.42988,4.215 5.61993,0 8.42989,-1.405 8.42989,-4.215 0,-2.3182 1.89672,-4.2149 4.21494,-4.2149 2.31821,0 4.21494,1.8967 4.21494,4.2149 0,2.3182 -1.89673,4.215 -4.21494,4.215 -2.31822,0 -4.21494,1.8967 -4.21494,4.2149 0,2.81 2.80996,4.215 8.42988,4.215 5.61992,0 8.42988,1.4049 8.42988,4.2149 0,3.1222 3.27828,4.2149 12.64482,4.2149 9.36653,0 12.64482,1.0928 12.64482,4.215 0,2.3182 1.89672,4.2149 4.21494,4.2149 2.31822,0 4.21494,-1.8967 4.21494,-4.2149 0,-2.3182 1.89673,-4.215 4.21494,-4.215 2.31822,0 4.21494,1.8968 4.21494,4.215 0,2.3182 -1.89672,4.2149 -4.21494,4.2149 -2.31821,0 -4.21494,1.8967 -4.21494,4.215 0,2.8099 2.80996,4.2149 8.42988,4.2149 5.61992,0 8.42988,1.405 8.42988,4.2149 0,2.81 2.80996,4.215 8.42989,4.215 7.49322,0 8.42988,0.9366 8.42988,8.4299 0,5.6199 -1.40498,8.4298 -4.21494,8.4298 -3.12218,0 -4.21494,3.2783 -4.21494,12.6449 0,9.3665 1.09276,12.6448 4.21494,12.6448 2.31821,0 4.21494,1.8967 4.21494,4.2149 0,2.3182 1.89672,4.215 4.21494,4.215 2.31821,0 4.21494,1.8967 4.21494,4.2149 0,2.3182 1.89672,4.2149 4.21494,4.2149 2.31822,0 4.21494,1.8968 4.21494,4.215 0,2.3182 1.89672,4.2149 4.21494,4.2149 2.80996,0 4.21494,2.81 4.21494,8.4299 0,5.6199 1.40498,8.4299 4.21494,8.4299 3.479,0 4.21494,5.1516 4.21494,29.5046 0,24.353 0.73594,29.5046 4.21494,29.5046 2.31822,0 4.21494,1.8967 4.21494,4.2149 0,2.3182 1.89672,4.2149 4.21494,4.2149 2.31822,0 4.21494,-1.8967 4.21494,-4.2149 0,-2.3182 1.89673,-4.2149 4.21494,-4.2149 2.31822,0 4.21494,1.8967 4.21494,4.2149 0,2.3182 -1.89672,4.2149 -4.21494,4.2149 -2.31821,0 -4.21494,1.8968 -4.21494,4.215 0,2.3182 1.89673,4.2149 4.21494,4.2149 2.80996,0 4.21494,2.81 4.21494,8.4299 0,7.4932 0.93666,8.4299 8.42988,8.4299 5.61993,0 8.42989,1.405 8.42989,4.2149 0,2.3182 -1.89673,4.215 -4.21494,4.215 -2.31822,0 -4.21495,1.8967 -4.21495,4.2149 0,2.3182 1.89673,4.2149 4.21495,4.2149 2.31821,0 4.21494,1.8968 4.21494,4.215 0,2.3182 1.89672,4.2149 4.21494,4.2149 3.12217,0 4.21494,3.2783 4.21494,12.6448 0,9.3666 1.09276,12.6449 4.21494,12.6449 3.12218,0 4.21494,3.2783 4.21494,12.6448 v 12.6448 h 12.64482 c 9.36653,0 12.64482,1.0928 12.64482,4.215 0,2.3182 -1.89672,4.2149 -4.21494,4.2149 -2.31822,0 -4.21494,1.8967 -4.21494,4.2149 0,2.3182 -1.89672,4.215 -4.21494,4.215 -2.31822,0 -4.21494,-1.8968 -4.21494,-4.215 0,-2.3182 -1.89672,-4.2149 -4.21494,-4.2149 -2.31822,0 -4.21494,1.8967 -4.21494,4.2149 0,2.3182 1.89672,4.215 4.21494,4.215 3.12218,0 4.21494,3.2783 4.21494,12.6448 0,9.3665 1.09276,12.6448 4.21494,12.6448 2.80996,0 4.21494,2.81 4.21494,8.4299 0,5.6199 -1.40498,8.4299 -4.21494,8.4299 -2.31822,0 -4.21494,1.8967 -4.21494,4.2149 0,2.3182 -1.89672,4.215 -4.21494,4.215 -2.31822,0 -4.21494,-1.8968 -4.21494,-4.215 0,-2.8099 -2.80996,-4.2149 -8.42988,-4.2149 -5.61992,0 -8.42988,-1.405 -8.42988,-4.215 0,-2.3182 -1.89673,-4.2149 -4.21494,-4.2149 -2.31822,0 -4.21495,1.8967 -4.21495,4.2149 0,2.3183 1.89673,4.215 4.21495,4.215 2.31821,0 4.21494,1.8967 4.21494,4.2149 0,2.81 2.80996,4.215 8.42988,4.215 7.49322,0 8.42988,0.9366 8.42988,8.4298 0,7.4933 -0.93666,8.4299 -8.42988,8.4299 -5.61992,0 -8.42988,-1.405 -8.42988,-4.2149 0,-2.3182 -1.89673,-4.215 -4.21494,-4.215 -2.31822,0 -4.21495,1.8968 -4.21495,4.215 0,2.3182 1.89673,4.2149 4.21495,4.2149 2.31821,0 4.21494,1.8967 4.21494,4.215 0,2.3182 -1.89673,4.2149 -4.21494,4.2149 -2.31822,0 -4.21495,1.8967 -4.21495,4.2149 0,3.2783 -3.74661,4.215 -16.85976,4.215 -13.11315,0 -16.85976,0.9366 -16.85976,4.2149 0,2.3182 -1.89672,4.215 -4.21494,4.215 -2.31822,0 -4.21494,-1.8968 -4.21494,-4.215 0,-2.3182 -1.89672,-4.2149 -4.21494,-4.2149 -2.80996,0 -4.21494,2.8099 -4.21494,8.4299 0,7.4932 0.93665,8.4298 8.42988,8.4298 5.61992,0 8.42988,-1.4049 8.42988,-4.2149 0,-2.81 2.80996,-4.2149 8.42988,-4.2149 5.61992,0 8.42988,1.4049 8.42988,4.2149 0,3.1222 3.27829,4.2149 12.64482,4.2149 9.36654,0 12.64483,1.0928 12.64483,4.215 0,3.1222 3.27828,4.2149 12.64482,4.2149 9.36653,0 12.64482,1.0928 12.64482,4.215 0,2.3182 -1.89672,4.2149 -4.21494,4.2149 -2.31822,0 -4.21494,1.8967 -4.21494,4.2149 0,2.3183 -1.89673,4.215 -4.21494,4.215 -2.31822,0 -4.21494,1.8967 -4.21494,4.2149 0,2.3182 -1.89673,4.215 -4.21494,4.215 -2.80996,0 -4.21494,2.8099 -4.21494,8.4298 0,5.62 -1.40498,8.4299 -4.21494,8.4299 -2.31822,0 -4.21495,1.8968 -4.21495,4.215 0,2.3182 1.89673,4.2149 4.21495,4.2149 2.31821,0 4.21494,1.8967 4.21494,4.215 0,2.3182 -1.89673,4.2149 -4.21494,4.2149 -2.31822,0 -4.21495,-1.8967 -4.21495,-4.2149 0,-2.3183 -1.89672,-4.215 -4.21494,-4.215 -2.31821,0 -4.21494,1.8967 -4.21494,4.215 0,3.1221 -3.27828,4.2149 -12.64482,4.2149 -9.36653,0 -12.64482,1.0928 -12.64482,4.2149 0,3.5905 7.49323,4.215 50.57929,4.215 h 50.57928 v 59.0091 c 0,50.5793 0.60214,59.0092 4.21494,59.0092 2.31822,0 4.21494,-1.8967 4.21494,-4.2149 0,-2.3182 1.89673,-4.215 4.21494,-4.215 2.80996,0 4.21495,2.81 4.21495,8.4299 0,7.4932 0.93665,8.4299 8.42988,8.4299 5.61992,0 8.42988,1.405 8.42988,4.2149 0,3.1222 3.27828,4.215 12.64482,4.215 9.36653,0 12.64482,-1.0928 12.64482,-4.215 0,-2.3182 1.89672,-4.2149 4.21494,-4.2149 3.12218,0 4.21494,-3.2783 4.21494,-12.6448 0,-9.3666 -1.09276,-12.6449 -4.21494,-12.6449 -3.12218,0 -4.21494,-3.2782 -4.21494,-12.6448 0,-9.3665 1.09276,-12.6448 4.21494,-12.6448 2.31822,0 4.21494,-1.8967 4.21494,-4.2149 0,-2.3183 -1.89672,-4.215 -4.21494,-4.215 -2.31822,0 -4.21494,-1.8967 -4.21494,-4.2149 0,-2.3182 1.89672,-4.215 4.21494,-4.215 2.31822,0 4.21494,-1.8967 4.21494,-4.2149 0,-2.3182 -1.89672,-4.2149 -4.21494,-4.2149 -2.31822,0 -4.21494,-1.8968 -4.21494,-4.215 0,-2.3182 1.89672,-4.2149 4.21494,-4.2149 2.31822,0 4.21494,-1.8967 4.21494,-4.215 0,-2.3182 -1.89672,-4.2149 -4.21494,-4.2149 -2.31822,0 -4.21494,-1.8967 -4.21494,-4.2149 0,-2.3183 1.89672,-4.215 4.21494,-4.215 3.12218,0 4.21494,-3.2783 4.21494,-12.6448 0,-9.3665 -1.09276,-12.6448 -4.21494,-12.6448 -3.12218,0 -4.21494,-3.2783 -4.21494,-12.6448 0,-9.3666 1.09276,-12.6449 4.21494,-12.6449 3.12218,0 4.21494,-3.2783 4.21494,-12.6448 0,-9.3665 -1.09276,-12.6448 -4.21494,-12.6448 -2.31822,0 -4.21494,-1.8967 -4.21494,-4.215 0,-2.3182 1.89672,-4.2149 4.21494,-4.2149 2.31822,0 4.21494,-1.8967 4.21494,-4.2149 0,-2.3183 -1.89672,-4.215 -4.21494,-4.215 -2.31822,0 -4.21494,-1.8967 -4.21494,-4.2149 0,-2.3182 1.89672,-4.215 4.21494,-4.215 3.12218,0 4.21494,-3.2782 4.21494,-12.6448 0,-9.3665 -1.09276,-12.6448 -4.21494,-12.6448 -2.31822,0 -4.21494,-1.8967 -4.21494,-4.2149 0,-2.3183 1.89672,-4.215 4.21494,-4.215 2.31822,0 4.21494,-1.8967 4.21494,-4.2149 0,-2.3182 -1.89672,-4.215 -4.21494,-4.215 -2.31822,0 -4.21494,-1.8967 -4.21494,-4.2149 0,-2.3182 1.89672,-4.2149 4.21494,-4.2149 2.31822,0 4.21494,-1.8968 4.21494,-4.215 0,-2.3182 -1.89672,-4.2149 -4.21494,-4.2149 -2.31822,0 -4.21494,-1.8967 -4.21494,-4.215 0,-2.3182 1.89672,-4.2149 4.21494,-4.2149 2.31822,0 4.21494,-1.8967 4.21494,-4.2149 0,-2.3183 -1.89672,-4.215 -4.21494,-4.215 -2.31822,0 -4.21494,-1.8967 -4.21494,-4.2149 0,-2.3182 1.89672,-4.215 4.21494,-4.215 2.31822,0 4.21494,-1.8967 4.21494,-4.2149 0,-2.3182 -1.89672,-4.2149 -4.21494,-4.2149 -2.31822,0 -4.21494,-1.8968 -4.21494,-4.215 0,-2.3182 1.89672,-4.2149 4.21494,-4.2149 2.31822,0 4.21494,-1.8968 4.21494,-4.215 0,-2.3182 -1.89672,-4.2149 -4.21494,-4.2149 -2.31822,0 -4.21494,-1.8967 -4.21494,-4.2149 0,-2.3183 1.89672,-4.215 4.21494,-4.215 2.31822,0 4.21494,-1.8967 4.21494,-4.2149 0,-2.3182 -1.89672,-4.215 -4.21494,-4.215 -2.31822,0 -4.21494,-1.8967 -4.21494,-4.2149 0,-2.3182 1.89672,-4.215 4.21494,-4.215 2.31822,0 4.21494,-1.8967 4.21494,-4.2149 0,-2.3182 -1.89672,-4.2149 -4.21494,-4.2149 -2.31822,0 -4.21494,-1.8968 -4.21494,-4.215 0,-2.3182 1.89672,-4.2149 4.21494,-4.2149 2.31822,0 4.21494,-1.8967 4.21494,-4.215 0,-2.3182 -1.89672,-4.2149 -4.21494,-4.2149 -2.31822,0 -4.21494,-1.8967 -4.21494,-4.2149 0,-2.3183 1.89672,-4.215 4.21494,-4.215 2.31822,0 4.21494,-1.8967 4.21494,-4.2149 0,-2.3182 -1.89672,-4.215 -4.21494,-4.215 -2.31822,0 -4.21494,-1.8967 -4.21494,-4.2149 0,-2.3182 1.89672,-4.2149 4.21494,-4.2149 2.31822,0 4.21494,-1.8968 4.21494,-4.215 0,-2.3182 -1.89672,-4.2149 -4.21494,-4.2149 -2.31822,0 -4.21494,-1.8967 -4.21494,-4.215 0,-2.3182 1.89672,-4.2149 4.21494,-4.2149 3.12218,0 4.21494,-3.2783 4.21494,-12.6448 v -12.6448 h 16.85976 16.85977 v 265.5412 265.5413 H 819.4591 c -20.60637,0 -25.28964,-0.7806 -25.28964,-4.215 0,-2.3182 -1.89672,-4.2149 -4.21494,-4.2149 -2.31822,0 -4.21494,-1.8967 -4.21494,-4.215 0,-2.3182 1.89672,-4.2149 4.21494,-4.2149 2.31822,0 4.21494,-1.8967 4.21494,-4.2149 0,-2.3183 -1.89672,-4.215 -4.21494,-4.215 -2.31822,0 -4.21494,1.8967 -4.21494,4.215 0,2.3182 -1.89672,4.2149 -4.21494,4.2149 -2.31822,0 -4.21494,1.8967 -4.21494,4.2149 0,2.3183 1.89672,4.215 4.21494,4.215 2.31822,0 4.21494,1.8967 4.21494,4.2149 0,2.81 -2.80996,4.215 -8.42988,4.215 -5.61992,0 -8.42988,-1.405 -8.42988,-4.215 0,-2.3182 -1.89673,-4.2149 -4.21494,-4.2149 -2.31822,0 -4.21494,1.8967 -4.21494,4.2149 0,2.3182 -1.89673,4.215 -4.21495,4.215 -2.31821,0 -4.21494,-1.8968 -4.21494,-4.215 0,-2.3182 -1.89672,-4.2149 -4.21494,-4.2149 -2.31821,0 -4.21494,1.8967 -4.21494,4.2149 0,2.3182 -1.89672,4.215 -4.21494,4.215 -2.80996,0 -4.21494,-2.81 -4.21494,-8.4299 0,-5.6199 -1.40498,-8.4299 -4.21494,-8.4299 -2.31822,0 -4.21494,-1.8967 -4.21494,-4.2149 0,-2.3183 -1.89672,-4.215 -4.21494,-4.215 -3.12218,0 -4.21494,3.2783 -4.21494,12.6448 v 12.6449 h -46.36435 c -39.33944,0 -46.36434,-0.6387 -46.36434,-4.215 z m 33.71952,-8.4299 c 0,-2.3182 -1.89672,-4.2149 -4.21494,-4.2149 -2.31822,0 -4.21494,1.8967 -4.21494,4.2149 0,2.3183 1.89672,4.215 4.21494,4.215 2.31822,0 4.21494,-1.8967 4.21494,-4.215 z m 101.15858,-8.4298 c 0,-9.3666 -1.09277,-12.6449 -4.21495,-12.6449 -2.31821,0 -4.21494,1.8968 -4.21494,4.215 0,2.3182 -1.89672,4.2149 -4.21494,4.2149 -2.31821,0 -4.21494,-1.8967 -4.21494,-4.2149 0,-2.3182 -1.89672,-4.215 -4.21494,-4.215 -2.31821,0 -4.21494,1.8968 -4.21494,4.215 0,2.3182 1.89673,4.2149 4.21494,4.2149 2.31822,0 4.21494,1.8967 4.21494,4.215 0,2.3182 1.89673,4.2149 4.21494,4.2149 2.31822,0 4.21494,1.8967 4.21494,4.2149 0,2.3183 1.89673,4.215 4.21494,4.215 3.12218,0 4.21495,-3.2783 4.21495,-12.6448 z m 75.86892,8.4298 c 0,-2.3182 -1.89672,-4.2149 -4.21494,-4.2149 -2.31821,0 -4.21494,1.8967 -4.21494,4.2149 0,2.3183 1.89673,4.215 4.21494,4.215 2.31822,0 4.21494,-1.8967 4.21494,-4.215 z m -143.30797,-8.4298 c 0,-2.3183 1.89672,-4.215 4.21494,-4.215 2.31821,0 4.21494,-1.8967 4.21494,-4.2149 0,-2.3182 1.89672,-4.215 4.21494,-4.215 2.80996,0 4.21494,-2.8099 4.21494,-8.4298 0,-5.62 -1.40498,-8.4299 -4.21494,-8.4299 -2.80996,0 -4.21494,2.8099 -4.21494,8.4299 0,5.6199 -1.40498,8.4298 -4.21494,8.4298 -2.31822,0 -4.21494,1.8968 -4.21494,4.215 0,2.3182 -1.89673,4.2149 -4.21494,4.2149 -2.31822,0 -4.21494,-1.8967 -4.21494,-4.2149 0,-2.3182 -1.89673,-4.215 -4.21494,-4.215 -2.80997,0 -4.21495,2.81 -4.21495,8.4299 0,7.4932 0.93666,8.4299 8.42989,8.4299 5.61992,0 8.42988,-1.405 8.42988,-4.2149 z m -33.71953,-16.8598 c 0,-2.3182 -1.89672,-4.2149 -4.21494,-4.2149 -2.31822,0 -4.21494,1.8967 -4.21494,4.2149 0,2.3182 1.89672,4.2149 4.21494,4.2149 2.31822,0 4.21494,-1.8967 4.21494,-4.2149 z m 33.71953,-4.2149 c 0,-7.4933 -0.93666,-8.4299 -8.42988,-8.4299 -5.61993,0 -8.42989,1.405 -8.42989,4.2149 0,2.3182 1.89673,4.215 4.21495,4.215 2.31821,0 4.21494,1.8967 4.21494,4.2149 0,2.3182 1.89672,4.2149 4.21494,4.2149 2.80996,0 4.21494,-2.8099 4.21494,-8.4298 z m 92.72869,4.2149 c 0,-2.3182 -1.89672,-4.2149 -4.21494,-4.2149 -2.31822,0 -4.21494,1.8967 -4.21494,4.2149 0,2.3182 1.89672,4.2149 4.21494,4.2149 2.31822,0 4.21494,-1.8967 4.21494,-4.2149 z m 50.57928,0 c 0,-2.3182 -1.89672,-4.2149 -4.21494,-4.2149 -2.31821,0 -4.21494,1.8967 -4.21494,4.2149 0,2.3182 1.89673,4.2149 4.21494,4.2149 2.31822,0 4.21494,-1.8967 4.21494,-4.2149 z m -177.0275,-25.2896 c 0,-2.3183 -1.89672,-4.215 -4.21494,-4.215 -2.31822,0 -4.21494,1.8967 -4.21494,4.215 0,2.3182 1.89672,4.2149 4.21494,4.2149 2.31822,0 4.21494,-1.8967 4.21494,-4.2149 z m 25.28965,0 c 0,-2.3183 -1.89673,-4.215 -4.21494,-4.215 -2.31822,0 -4.21495,1.8967 -4.21495,4.215 0,2.3182 1.89673,4.2149 4.21495,4.2149 2.31821,0 4.21494,-1.8967 4.21494,-4.2149 z m 50.57928,0 c 0,-2.3183 -1.89672,-4.215 -4.21494,-4.215 -2.31822,0 -4.21494,1.8967 -4.21494,4.215 0,2.3182 1.89672,4.2149 4.21494,4.2149 2.31822,0 4.21494,-1.8967 4.21494,-4.2149 z m 50.57929,0 c 0,-2.3183 -1.89672,-4.215 -4.21494,-4.215 -2.31822,0 -4.21494,1.8967 -4.21494,4.215 0,2.3182 1.89672,4.2149 4.21494,4.2149 2.31822,0 4.21494,-1.8967 4.21494,-4.2149 z m 25.28964,0 c 0,-2.3183 -1.89672,-4.215 -4.21494,-4.215 -2.31822,0 -4.21494,1.8967 -4.21494,4.215 0,2.3182 1.89672,4.2149 4.21494,4.2149 2.31822,0 4.21494,-1.8967 4.21494,-4.2149 z m -92.72869,-8.4299 c 0,-2.3182 -1.89672,-4.215 -4.21494,-4.215 -2.80996,0 -4.21494,-2.8099 -4.21494,-8.4298 0,-5.62 -1.40498,-8.4299 -4.21494,-8.4299 -2.31822,0 -4.21494,1.8967 -4.21494,4.2149 0,2.3182 -1.89673,4.215 -4.21494,4.215 -2.80996,0 -4.21494,2.8099 -4.21494,8.4298 0,8.1177 0.46832,8.4299 12.64482,8.4299 9.36653,0 12.64482,-1.0927 12.64482,-4.2149 z m -84.29881,-16.8598 c 0,-2.3182 -1.89672,-4.2149 -4.21494,-4.2149 -2.31822,0 -4.21494,1.8967 -4.21494,4.2149 0,2.3182 1.89672,4.215 4.21494,4.215 2.31822,0 4.21494,-1.8968 4.21494,-4.215 z m 25.28964,0 c 0,-2.3182 -1.89672,-4.2149 -4.21494,-4.2149 -2.31822,0 -4.21494,1.8967 -4.21494,4.2149 0,2.3182 1.89672,4.215 4.21494,4.215 2.31822,0 4.21494,-1.8968 4.21494,-4.215 z m 25.28965,0 c 0,-2.3182 -1.89673,-4.2149 -4.21494,-4.2149 -2.31822,0 -4.21495,1.8967 -4.21495,4.2149 0,2.3182 1.89673,4.215 4.21495,4.215 2.31821,0 4.21494,-1.8968 4.21494,-4.215 z m 151.73785,0 c 0,-2.3182 -1.89672,-4.2149 -4.21494,-4.2149 -2.31821,0 -4.21494,1.8967 -4.21494,4.2149 0,2.3182 1.89673,4.215 4.21494,4.215 2.31822,0 4.21494,-1.8968 4.21494,-4.215 z m -118.01833,-75.8689 v -37.9345 H 680.36607 642.4316 v 37.9345 37.9344 h 37.93447 37.93446 z m -50.57929,0 v -12.6448 h 12.64483 12.64482 v 12.6448 12.6448 h -12.64482 -12.64483 z m 168.59762,25.2896 c 0,-2.3182 -1.89672,-4.2149 -4.21494,-4.2149 -2.31821,0 -4.21494,1.8967 -4.21494,4.2149 0,2.3182 1.89673,4.215 4.21494,4.215 2.31822,0 4.21494,-1.8968 4.21494,-4.215 z m -227.60678,-16.8597 c 0,-2.3183 -1.89673,-4.215 -4.21494,-4.215 -2.31822,0 -4.21494,1.8967 -4.21494,4.215 0,2.3182 1.89672,4.2149 4.21494,4.2149 2.31821,0 4.21494,-1.8967 4.21494,-4.2149 z m 227.60678,-8.4299 c 0,-2.3182 -1.89672,-4.215 -4.21494,-4.215 -2.31821,0 -4.21494,1.8968 -4.21494,4.215 0,2.3182 1.89673,4.2149 4.21494,4.2149 2.31822,0 4.21494,-1.8967 4.21494,-4.2149 z m -227.60678,-75.8689 c 0,-2.3183 1.89672,-4.215 4.21494,-4.215 2.31821,0 4.21494,-1.8967 4.21494,-4.2149 0,-2.3182 -1.89673,-4.215 -4.21494,-4.215 -2.31822,0 -4.21494,1.8968 -4.21494,4.215 0,2.3182 -1.89673,4.2149 -4.21494,4.2149 -2.31822,0 -4.21494,1.8967 -4.21494,4.215 0,2.3182 1.89672,4.2149 4.21494,4.2149 2.31821,0 4.21494,-1.8967 4.21494,-4.2149 z m -269.75621,-8.4299 c 0,-2.3182 -1.89672,-4.215 -4.21494,-4.215 -2.31822,0 -4.21494,1.8968 -4.21494,4.215 0,2.3182 1.89672,4.2149 4.21494,4.2149 2.31822,0 4.21494,-1.8967 4.21494,-4.2149 z m 16.85977,-21.0747 c 0,-5.62 -1.40498,-8.4299 -4.21494,-8.4299 -2.80996,0 -4.21494,2.8099 -4.21494,8.4299 0,5.6199 1.40498,8.4298 4.21494,8.4298 2.80996,0 4.21494,-2.8099 4.21494,-8.4298 z m 101.15858,4.2149 c 0,-3.1222 3.27828,-4.2149 12.64482,-4.2149 9.36653,0 12.64482,1.0927 12.64482,4.2149 0,2.3182 1.89672,4.2149 4.21494,4.2149 2.31822,0 4.21494,-1.8967 4.21494,-4.2149 0,-2.3182 1.89672,-4.2149 4.21494,-4.2149 2.31822,0 4.21494,1.8967 4.21494,4.2149 0,2.3182 1.89673,4.2149 4.21494,4.2149 2.31822,0 4.21494,-1.8967 4.21494,-4.2149 0,-2.3182 -1.89672,-4.2149 -4.21494,-4.2149 -2.31821,0 -4.21494,-1.8968 -4.21494,-4.215 0,-2.3182 1.89673,-4.2149 4.21494,-4.2149 2.31822,0 4.21494,-1.8967 4.21494,-4.215 0,-2.3182 -1.89672,-4.2149 -4.21494,-4.2149 -2.31821,0 -4.21494,-1.8967 -4.21494,-4.2149 0,-3.372 -4.21494,-4.215 -21.0747,-4.215 h -21.0747 v -12.6448 c 0,-12.1765 0.31222,-12.6448 8.42988,-12.6448 5.61992,0 8.42988,1.405 8.42988,4.2149 0,2.3182 1.89672,4.215 4.21494,4.215 2.31822,0 4.21494,-1.8968 4.21494,-4.215 0,-2.8099 2.80996,-4.2149 8.42988,-4.2149 5.61992,0 8.42988,1.405 8.42988,4.2149 0,2.3182 1.89673,4.215 4.21494,4.215 2.31822,0 4.21494,-1.8968 4.21494,-4.215 0,-2.3182 1.89673,-4.2149 4.21494,-4.2149 2.80996,0 4.21494,2.8099 4.21494,8.4299 0,5.6199 -1.40498,8.4298 -4.21494,8.4298 -2.31821,0 -4.21494,1.8968 -4.21494,4.215 0,2.8099 2.80996,4.2149 8.42988,4.2149 5.61993,0 8.42989,1.405 8.42989,4.215 0,2.3182 1.89672,4.2149 4.21494,4.2149 2.80996,0 4.21494,-2.81 4.21494,-8.4299 0,-5.6199 -1.40498,-8.4299 -4.21494,-8.4299 -2.31822,0 -4.21494,-1.8967 -4.21494,-4.2149 0,-2.3182 1.89672,-4.2149 4.21494,-4.2149 3.37195,0 4.21494,-4.215 4.21494,-21.0747 v -21.0747 h -8.42988 c -5.61993,0 -8.42989,-1.405 -8.42989,-4.215 0,-2.3182 -1.89672,-4.2149 -4.21494,-4.2149 -2.31821,0 -4.21494,-1.8967 -4.21494,-4.215 0,-2.3182 -1.89672,-4.2149 -4.21494,-4.2149 -2.31821,0 -4.21494,1.8967 -4.21494,4.2149 0,2.81 -2.80996,4.215 -8.42988,4.215 -5.61992,0 -8.42988,1.405 -8.42988,4.2149 0,2.3182 -1.89672,4.215 -4.21494,4.215 -2.31822,0 -4.21494,-1.8968 -4.21494,-4.215 0,-2.3182 1.89672,-4.2149 4.21494,-4.2149 2.31822,0 4.21494,-1.8967 4.21494,-4.215 0,-2.8099 -2.80996,-4.2149 -8.42988,-4.2149 -5.61992,0 -8.42988,-1.405 -8.42988,-4.2149 0,-2.81 2.80996,-4.215 8.42988,-4.215 7.49323,0 8.42988,-0.9366 8.42988,-8.4299 0,-5.6199 1.40498,-8.4298 4.21494,-8.4298 2.31822,0 4.21494,1.8967 4.21494,4.2149 0,2.3182 1.89672,4.2149 4.21494,4.2149 2.31822,0 4.21494,-1.8967 4.21494,-4.2149 0,-2.81 2.80996,-4.2149 8.42988,-4.2149 8.11767,0 8.42988,-0.4684 8.42988,-12.6449 0,-9.3665 1.09277,-12.6448 4.21495,-12.6448 2.31821,0 4.21494,1.8967 4.21494,4.215 0,2.3182 1.89672,4.2149 4.21494,4.2149 2.31821,0 4.21494,-1.8967 4.21494,-4.2149 0,-2.3183 -1.89673,-4.215 -4.21494,-4.215 -2.80996,0 -4.21494,-2.81 -4.21494,-8.4299 0,-5.6199 1.40498,-8.4299 4.21494,-8.4299 2.31821,0 4.21494,-1.8967 4.21494,-4.2149 0,-2.81 -2.80996,-4.2149 -8.42988,-4.2149 -5.61993,0 -8.42989,-1.405 -8.42989,-4.215 0,-2.3182 -1.89672,-4.2149 -4.21494,-4.2149 -2.80996,0 -4.21494,-2.81 -4.21494,-8.4299 0,-5.6199 -1.40498,-8.4299 -4.21494,-8.4299 -3.12218,0 -4.21494,-3.2783 -4.21494,-12.6448 0,-9.3665 1.09276,-12.6448 4.21494,-12.6448 2.31822,0 4.21494,-1.8967 4.21494,-4.215 0,-2.8099 2.80996,-4.2149 8.42988,-4.2149 7.49323,0 8.42989,-0.9367 8.42989,-8.4299 0,-5.6199 1.40498,-8.4299 4.21494,-8.4299 2.80996,0 4.21494,2.81 4.21494,8.4299 0,5.6199 1.40498,8.4299 4.21494,8.4299 2.31821,0 4.21494,-1.8967 4.21494,-4.2149 0,-3.2783 3.74661,-4.215 16.85976,-4.215 13.11315,0 16.85976,-0.9366 16.85976,-4.2149 0,-2.3182 1.89673,-4.215 4.21494,-4.215 2.31822,0 4.21494,1.8968 4.21494,4.215 0,2.3182 -1.89672,4.2149 -4.21494,4.2149 -2.80996,0 -4.21494,2.81 -4.21494,8.4299 0,5.6199 1.40498,8.4299 4.21494,8.4299 2.31822,0 4.21494,1.8967 4.21494,4.2149 0,2.3182 -1.89672,4.215 -4.21494,4.215 -2.80996,0 -4.21494,2.8099 -4.21494,8.4298 0,7.4933 -0.93665,8.4299 -8.42988,8.4299 -5.61992,0 -8.42988,1.405 -8.42988,4.215 0,2.3182 -1.89672,4.2149 -4.21494,4.2149 -2.31822,0 -4.21494,-1.8967 -4.21494,-4.2149 0,-2.3183 -1.89672,-4.215 -4.21494,-4.215 -2.31822,0 -4.21494,1.8967 -4.21494,4.215 0,2.3182 -1.89673,4.2149 -4.21494,4.2149 -2.31822,0 -4.21494,-1.8967 -4.21494,-4.2149 0,-2.3183 -1.89673,-4.215 -4.21494,-4.215 -2.80996,0 -4.21494,2.81 -4.21494,8.4299 0,5.6199 1.40498,8.4299 4.21494,8.4299 2.31821,0 4.21494,1.8967 4.21494,4.2149 0,2.3182 1.89672,4.215 4.21494,4.215 3.27828,0 4.21494,3.7466 4.21494,16.8597 0,13.1132 0.93665,16.8598 4.21494,16.8598 2.31822,0 4.21494,-1.8967 4.21494,-4.2149 0,-2.3183 1.89672,-4.215 4.21494,-4.215 2.31822,0 4.21494,1.8967 4.21494,4.215 0,2.3182 -1.89672,4.2149 -4.21494,4.2149 -2.31822,0 -4.21494,1.8967 -4.21494,4.2149 0,2.3182 -1.89672,4.215 -4.21494,4.215 -3.12218,0 -4.21494,3.2783 -4.21494,12.6448 0,9.3665 -1.09276,12.6448 -4.21494,12.6448 -2.80996,0 -4.21494,-2.8099 -4.21494,-8.4299 0,-5.6199 -1.40498,-8.4298 -4.21494,-8.4298 -2.80996,0 -4.21494,2.8099 -4.21494,8.4298 0,5.62 1.40498,8.4299 4.21494,8.4299 2.31821,0 4.21494,1.8967 4.21494,4.215 0,2.8099 2.80996,4.2149 8.42988,4.2149 5.61992,0 8.42988,1.405 8.42988,4.2149 0,2.3183 1.89672,4.215 4.21494,4.215 3.12218,0 4.21494,3.2783 4.21494,12.6448 0,9.3665 -1.09276,12.6448 -4.21494,12.6448 -2.31822,0 -4.21494,1.8967 -4.21494,4.215 0,2.3182 -1.89672,4.2149 -4.21494,4.2149 -2.31822,0 -4.21494,1.8967 -4.21494,4.2149 0,2.81 2.80996,4.215 8.42988,4.215 5.61992,0 8.42988,-1.405 8.42988,-4.215 0,-2.3182 1.89672,-4.2149 4.21494,-4.2149 2.31822,0 4.21494,-1.8967 4.21494,-4.2149 0,-2.3183 1.89672,-4.215 4.21494,-4.215 2.31822,0 4.21494,-1.8967 4.21494,-4.2149 0,-2.3182 1.89673,-4.215 4.21494,-4.215 2.31822,0 4.21494,1.8968 4.21494,4.215 0,2.3182 -1.89672,4.2149 -4.21494,4.2149 -2.31821,0 -4.21494,1.8967 -4.21494,4.215 0,2.3182 -1.89672,4.2149 -4.21494,4.2149 -2.80996,0 -4.21494,2.81 -4.21494,8.4299 0,7.4932 -0.93665,8.4299 -8.42988,8.4299 -5.61992,0 -8.42988,1.4049 -8.42988,4.2149 0,2.3182 1.89672,4.2149 4.21494,4.2149 2.31822,0 4.21494,1.8968 4.21494,4.215 0,2.3182 1.89672,4.2149 4.21494,4.2149 2.31822,0 4.21494,-1.8967 4.21494,-4.2149 0,-2.3182 1.89672,-4.215 4.21494,-4.215 2.80996,0 4.21494,-2.8099 4.21494,-8.4298 0,-5.62 1.40498,-8.4299 4.21494,-8.4299 2.31822,0 4.21494,-1.8967 4.21494,-4.215 0,-2.3182 1.89673,-4.2149 4.21494,-4.2149 3.27829,0 4.21494,-3.7466 4.21494,-16.8598 0,-13.1131 0.93666,-16.8597 4.21494,-16.8597 2.31822,0 4.21495,-1.8967 4.21495,-4.215 0,-2.3182 -1.89673,-4.2149 -4.21495,-4.2149 -2.31821,0 -4.21494,-1.8967 -4.21494,-4.2149 0,-2.3183 1.89673,-4.215 4.21494,-4.215 2.31822,0 4.21495,-1.8967 4.21495,-4.2149 0,-2.3182 -1.89673,-4.215 -4.21495,-4.215 -2.31821,0 -4.21494,-1.8967 -4.21494,-4.2149 0,-2.3182 1.89673,-4.2149 4.21494,-4.2149 3.37196,0 4.21495,-4.215 4.21495,-21.0747 0,-16.8598 0.84298,-21.0748 4.21494,-21.0748 2.31821,0 4.21494,-1.8967 4.21494,-4.2149 0,-2.3182 -1.89673,-4.2149 -4.21494,-4.2149 -3.37196,0 -4.21494,-4.215 -4.21494,-21.0747 0,-16.8598 0.84298,-21.0747 4.21494,-21.0747 2.31821,0 4.21494,-1.8968 4.21494,-4.215 0,-2.8099 -2.80996,-4.2149 -8.42988,-4.2149 -5.61993,0 -8.42989,-1.405 -8.42989,-4.215 0,-2.3182 1.89673,-4.2149 4.21494,-4.2149 3.27829,0 4.21495,-3.7466 4.21495,-16.8598 0,-13.1131 0.93665,-16.8597 4.21494,-16.8597 2.31821,0 4.21494,-1.8967 4.21494,-4.215 0,-2.8099 -2.80996,-4.2149 -8.42988,-4.2149 -5.61993,0 -8.42989,-1.405 -8.42989,-4.2149 0,-3.1222 -3.27828,-4.215 -12.64482,-4.215 h -12.64482 v -12.6448 c 0,-9.3665 1.09276,-12.6448 4.21494,-12.6448 2.80996,0 4.21494,-2.81 4.21494,-8.4299 0,-5.6199 -1.40498,-8.4299 -4.21494,-8.4299 -2.31822,0 -4.21494,-1.8967 -4.21494,-4.2149 0,-2.3183 -1.89672,-4.215 -4.21494,-4.215 -2.80996,0 -4.21494,-2.8099 -4.21494,-8.4299 0,-5.6199 -1.40498,-8.4298 -4.21494,-8.4298 -2.31822,0 -4.21494,1.8967 -4.21494,4.2149 0,2.81 -2.80996,4.2149 -8.42988,4.2149 -5.61992,0 -8.42988,-1.4049 -8.42988,-4.2149 0,-3.1222 -3.27829,-4.2149 -12.64482,-4.2149 -9.36654,0 -12.64483,1.0927 -12.64483,4.2149 0,2.3182 -1.89672,4.2149 -4.21494,4.2149 -2.31821,0 -4.21494,-1.8967 -4.21494,-4.2149 0,-2.3182 1.89673,-4.2149 4.21494,-4.2149 2.31822,0 4.21494,-1.8968 4.21494,-4.215 0,-3.3719 -4.21494,-4.2149 -21.0747,-4.2149 -16.85976,0 -21.0747,0.843 -21.0747,4.2149 0,2.3182 -1.89672,4.215 -4.21494,4.215 -2.31822,0 -4.21494,1.8967 -4.21494,4.2149 0,2.3182 -1.89673,4.2149 -4.21494,4.2149 -2.31822,0 -4.21494,-1.8967 -4.21494,-4.2149 0,-2.81 -2.80996,-4.2149 -8.42988,-4.2149 -5.61993,0 -8.42989,1.4049 -8.42989,4.2149 0,2.81 -2.80996,4.2149 -8.42988,4.2149 -8.11766,0 -8.42988,0.4684 -8.42988,12.6449 0,9.3665 -1.09276,12.6448 -4.21494,12.6448 -2.31822,0 -4.21494,-1.8967 -4.21494,-4.215 0,-2.3182 -1.89672,-4.2149 -4.21494,-4.2149 -2.31822,0 -4.21494,1.8967 -4.21494,4.2149 0,2.3183 1.89672,4.215 4.21494,4.215 2.31822,0 4.21494,1.8967 4.21494,4.2149 0,2.81 -2.80996,4.215 -8.42988,4.215 -8.11766,0 -8.42988,0.4683 -8.42988,12.6448 0,9.3665 -1.09276,12.6448 -4.21494,12.6448 -2.31822,0 -4.21494,1.8967 -4.21494,4.215 0,2.3182 -1.89673,4.2149 -4.21494,4.2149 -2.31822,0 -4.21494,1.8967 -4.21494,4.2149 0,2.3183 1.89672,4.215 4.21494,4.215 2.31821,0 4.21494,1.8967 4.21494,4.2149 0,2.3182 -1.89673,4.215 -4.21494,4.215 -3.27829,0 -4.21494,3.7466 -4.21494,16.8597 0,13.1132 -0.93666,16.8598 -4.21494,16.8598 -2.31822,0 -4.21494,1.8967 -4.21494,4.2149 0,2.3182 1.89672,4.215 4.21494,4.215 2.31821,0 4.21494,1.8967 4.21494,4.2149 0,2.3182 -1.89673,4.2149 -4.21494,4.2149 -3.64802,0 -4.21494,10.7716 -4.21494,80.0839 v 80.0839 h 8.42988 c 5.61992,0 8.42988,1.405 8.42988,4.2149 0,2.3182 -1.89673,4.215 -4.21494,4.215 -2.31822,0 -4.21494,1.8967 -4.21494,4.2149 0,2.81 2.80996,4.2149 8.42988,4.2149 5.61992,0 8.42988,1.405 8.42988,4.215 0,2.8099 2.80996,4.2149 8.42988,4.2149 7.49323,0 8.42988,-0.9366 8.42988,-8.4299 0,-5.6199 1.40498,-8.4298 4.21494,-8.4298 3.12218,0 4.21494,3.2783 4.21494,12.6448 0,9.3665 1.09276,12.6448 4.21494,12.6448 2.80996,0 4.21494,2.81 4.21494,8.4299 0,7.4932 0.93666,8.4299 8.42988,8.4299 5.61992,0 8.42989,1.4049 8.42989,4.2149 0,2.81 2.80996,4.2149 8.42988,4.2149 5.61992,0 8.42988,-1.4049 8.42988,-4.2149 z m -42.14941,-67.439 c 0,-2.3183 -1.89672,-4.215 -4.21494,-4.215 -3.12218,0 -4.21494,-3.2783 -4.21494,-12.6448 0,-9.3665 -1.09276,-12.6448 -4.21494,-12.6448 -2.31822,0 -4.21494,-1.8967 -4.21494,-4.215 0,-2.8099 2.80996,-4.2149 8.42988,-4.2149 7.49323,0 8.42988,0.9366 8.42988,8.4299 0,7.4932 0.93666,8.4299 8.42988,8.4299 7.49323,0 8.42988,0.9366 8.42988,8.4298 0,5.62 -1.40498,8.4299 -4.21494,8.4299 -2.31821,0 -4.21494,1.8967 -4.21494,4.215 0,2.3182 -1.89672,4.2149 -4.21494,4.2149 -2.31821,0 -4.21494,-1.8967 -4.21494,-4.2149 z m 33.71953,-8.4299 c 0,-2.3182 -1.89673,-4.215 -4.21494,-4.215 -2.31822,0 -4.21494,-1.8967 -4.21494,-4.2149 0,-2.3182 1.89672,-4.2149 4.21494,-4.2149 2.31821,0 4.21494,1.8967 4.21494,4.2149 0,2.3182 1.89672,4.2149 4.21494,4.2149 2.31821,0 4.21494,1.8968 4.21494,4.215 0,2.3182 -1.89673,4.2149 -4.21494,4.2149 -2.31822,0 -4.21494,-1.8967 -4.21494,-4.2149 z m 33.71952,0 c 0,-2.3182 1.89672,-4.215 4.21494,-4.215 2.31822,0 4.21494,-1.8967 4.21494,-4.2149 0,-2.3182 1.89672,-4.2149 4.21494,-4.2149 2.80996,0 4.21494,2.8099 4.21494,8.4298 0,7.4933 -0.93665,8.4299 -8.42988,8.4299 -5.61992,0 -8.42988,-1.405 -8.42988,-4.2149 z m 25.28964,-4.215 c 0,-5.6199 1.40498,-8.4298 4.21494,-8.4298 2.31822,0 4.21494,1.8967 4.21494,4.2149 0,2.3182 1.89673,4.2149 4.21495,4.2149 2.31821,0 4.21494,1.8968 4.21494,4.215 0,2.8099 -2.80996,4.2149 -8.42989,4.2149 -7.49322,0 -8.42988,-0.9366 -8.42988,-8.4299 z m -134.87809,-21.0747 c 0,-2.3182 1.89672,-4.2149 4.21494,-4.2149 2.31821,0 4.21494,1.8967 4.21494,4.2149 0,2.3183 -1.89673,4.215 -4.21494,4.215 -2.31822,0 -4.21494,-1.8967 -4.21494,-4.215 z m 202.31714,0 c 0,-2.3182 1.89673,-4.2149 4.21494,-4.2149 2.31822,0 4.21494,1.8967 4.21494,4.2149 0,2.3183 -1.89672,4.215 -4.21494,4.215 -2.31821,0 -4.21494,-1.8967 -4.21494,-4.215 z m -202.31714,-25.2896 c 0,-2.3182 1.89672,-4.2149 4.21494,-4.2149 2.31821,0 4.21494,1.8967 4.21494,4.2149 0,2.3182 -1.89673,4.2149 -4.21494,4.2149 -2.31822,0 -4.21494,-1.8967 -4.21494,-4.2149 z m 25.28964,0 c 0,-2.3182 1.89672,-4.2149 4.21494,-4.2149 2.31822,0 4.21494,1.8967 4.21494,4.2149 0,2.3182 -1.89672,4.2149 -4.21494,4.2149 -2.31822,0 -4.21494,-1.8967 -4.21494,-4.2149 z m 25.28964,0 c 0,-2.3182 1.89673,-4.2149 4.21494,-4.2149 2.31822,0 4.21494,1.8967 4.21494,4.2149 0,2.3182 -1.89672,4.2149 -4.21494,4.2149 -2.31821,0 -4.21494,-1.8967 -4.21494,-4.2149 z m 33.71953,0 c 0,-2.3182 1.89672,-4.2149 4.21494,-4.2149 2.31822,0 4.21494,1.8967 4.21494,4.2149 0,2.3182 -1.89672,4.2149 -4.21494,4.2149 -2.31822,0 -4.21494,-1.8967 -4.21494,-4.2149 z m 92.72869,0 c 0,-2.3182 1.89672,-4.2149 4.21494,-4.2149 2.31822,0 4.21494,1.8967 4.21494,4.2149 0,2.3182 -1.89672,4.2149 -4.21494,4.2149 -2.31822,0 -4.21494,-1.8967 -4.21494,-4.2149 z m -177.0275,-25.2896 c 0,-2.3183 1.89672,-4.215 4.21494,-4.215 2.31821,0 4.21494,1.8967 4.21494,4.215 0,2.3182 -1.89673,4.2149 -4.21494,4.2149 -2.31822,0 -4.21494,-1.8967 -4.21494,-4.2149 z m 50.57928,0 c 0,-2.3183 1.89673,-4.215 4.21494,-4.215 2.31822,0 4.21494,1.8967 4.21494,4.215 0,2.3182 -1.89672,4.2149 -4.21494,4.2149 -2.31821,0 -4.21494,-1.8967 -4.21494,-4.2149 z m 25.28965,0 c 0,-2.3183 1.89672,-4.215 4.21494,-4.215 2.31821,0 4.21494,1.8967 4.21494,4.215 0,2.3182 -1.89673,4.2149 -4.21494,4.2149 -2.31822,0 -4.21494,-1.8967 -4.21494,-4.2149 z m 25.28964,0 c 0,-2.3183 1.89672,-4.215 4.21494,-4.215 2.31822,0 4.21494,1.8967 4.21494,4.215 0,2.3182 -1.89672,4.2149 -4.21494,4.2149 -2.31822,0 -4.21494,-1.8967 -4.21494,-4.2149 z m -101.15857,-25.2897 c 0,-2.3182 1.89672,-4.2149 4.21494,-4.2149 2.31821,0 4.21494,1.8967 4.21494,4.2149 0,2.3182 -1.89673,4.2149 -4.21494,4.2149 -2.31822,0 -4.21494,-1.8967 -4.21494,-4.2149 z m 50.57928,0 c 0,-2.3182 1.89673,-4.2149 4.21494,-4.2149 2.31822,0 4.21494,1.8967 4.21494,4.2149 0,2.3182 -1.89672,4.2149 -4.21494,4.2149 -2.31821,0 -4.21494,-1.8967 -4.21494,-4.2149 z m 50.57929,0 c 0,-2.3182 1.89672,-4.2149 4.21494,-4.2149 2.31822,0 4.21494,1.8967 4.21494,4.2149 0,2.3182 -1.89672,4.2149 -4.21494,4.2149 -2.31822,0 -4.21494,-1.8967 -4.21494,-4.2149 z m -75.86893,-25.2896 c 0,-2.3183 1.89672,-4.215 4.21494,-4.215 2.31822,0 4.21494,-1.8967 4.21494,-4.2149 0,-2.3182 -1.89672,-4.215 -4.21494,-4.215 -2.31822,0 -4.21494,-1.8967 -4.21494,-4.2149 0,-2.3182 1.89672,-4.2149 4.21494,-4.2149 2.31822,0 4.21494,-1.8968 4.21494,-4.215 0,-2.8099 2.80996,-4.2149 8.42988,-4.2149 5.61992,0 8.42988,1.405 8.42988,4.2149 0,2.3182 1.89673,4.215 4.21494,4.215 2.31822,0 4.21494,-1.8968 4.21494,-4.215 0,-2.3182 -1.89672,-4.2149 -4.21494,-4.2149 -2.31821,0 -4.21494,-1.8967 -4.21494,-4.215 0,-2.3182 -1.89672,-4.2149 -4.21494,-4.2149 -2.31821,0 -4.21494,-1.8967 -4.21494,-4.2149 0,-3.2783 3.74662,-4.215 16.85976,-4.215 13.11315,0 16.85977,0.9367 16.85977,4.215 0,2.8099 2.80996,4.2149 8.42988,4.2149 5.61992,0 8.42988,1.405 8.42988,4.2149 0,2.3183 1.89672,4.215 4.21494,4.215 2.31822,0 4.21494,1.8967 4.21494,4.2149 0,2.3182 -1.89672,4.215 -4.21494,4.215 -2.31822,0 -4.21494,1.8967 -4.21494,4.2149 0,2.3182 -1.89672,4.2149 -4.21494,4.2149 -2.31822,0 -4.21494,1.8968 -4.21494,4.215 0,2.3182 -1.89673,4.2149 -4.21494,4.2149 -2.31822,0 -4.21494,-1.8967 -4.21494,-4.2149 0,-2.3182 -1.89673,-4.215 -4.21494,-4.215 -2.31822,0 -4.21494,1.8968 -4.21494,4.215 0,2.8099 -2.80997,4.2149 -8.42989,4.2149 -5.61992,0 -8.42988,-1.405 -8.42988,-4.2149 0,-2.3182 -1.89672,-4.215 -4.21494,-4.215 -2.31821,0 -4.21494,-1.8967 -4.21494,-4.2149 0,-2.3182 -1.89672,-4.2149 -4.21494,-4.2149 -2.31822,0 -4.21494,1.8967 -4.21494,4.2149 0,2.3182 1.89672,4.2149 4.21494,4.2149 2.31822,0 4.21494,1.8968 4.21494,4.215 0,2.3182 -1.89672,4.2149 -4.21494,4.2149 -2.31822,0 -4.21494,1.8967 -4.21494,4.215 0,2.3182 -1.89672,4.2149 -4.21494,4.2149 -2.31822,0 -4.21494,-1.8967 -4.21494,-4.2149 z m 0,-50.5793 c 0,-2.3182 1.89672,-4.215 4.21494,-4.215 2.31822,0 4.21494,1.8968 4.21494,4.215 0,2.3182 -1.89672,4.2149 -4.21494,4.2149 -2.31822,0 -4.21494,-1.8967 -4.21494,-4.2149 z m 101.15857,0 c 0,-2.3182 1.89673,-4.215 4.21494,-4.215 2.31822,0 4.21494,1.8968 4.21494,4.215 0,2.3182 -1.89672,4.2149 -4.21494,4.2149 -2.31821,0 -4.21494,-1.8967 -4.21494,-4.2149 z m -25.28964,-25.2897 c 0,-2.3182 1.89672,-4.2149 4.21494,-4.2149 2.31822,0 4.21494,1.8967 4.21494,4.2149 0,2.3183 -1.89672,4.215 -4.21494,4.215 -2.31822,0 -4.21494,-1.8967 -4.21494,-4.215 z m 25.28964,0 c 0,-2.3182 1.89673,-4.2149 4.21494,-4.2149 2.31822,0 4.21494,1.8967 4.21494,4.2149 0,2.3183 -1.89672,4.215 -4.21494,4.215 -2.31821,0 -4.21494,-1.8967 -4.21494,-4.215 z m -84.29881,-25.2896 v -12.6448 h 12.64482 12.64483 v 12.6448 12.6448 h -12.64483 -12.64482 z m 50.57929,0 v -12.6448 h 12.64482 12.64482 v 12.6448 12.6448 H 478.04892 465.4041 Z m 50.57928,0 v -12.6448 h 12.64483 12.64482 v 12.6448 12.6448 h -12.64482 -12.64483 z m -92.72869,-25.2897 c 0,-2.3182 1.89673,-4.2149 4.21494,-4.2149 2.31822,0 4.21494,1.8967 4.21494,4.2149 0,2.3183 -1.89672,4.215 -4.21494,4.215 -2.31821,0 -4.21494,-1.8967 -4.21494,-4.215 z m 126.44822,0 c 0,-2.3182 1.89672,-4.2149 4.21494,-4.2149 2.31822,0 4.21494,1.8967 4.21494,4.2149 0,2.3183 -1.89672,4.215 -4.21494,4.215 -2.31822,0 -4.21494,-1.8967 -4.21494,-4.215 z m -75.86893,-25.2896 c 0,-2.3182 1.89672,-4.2149 4.21494,-4.2149 2.31822,0 4.21494,1.8967 4.21494,4.2149 0,2.3182 -1.89672,4.2149 -4.21494,4.2149 -2.31822,0 -4.21494,-1.8967 -4.21494,-4.2149 z m 109.58845,354.055 c 0,-2.3182 -1.89672,-4.2149 -4.21494,-4.2149 -2.31821,0 -4.21494,1.8967 -4.21494,4.2149 0,2.3182 1.89673,4.2149 4.21494,4.2149 2.31822,0 4.21494,-1.8967 4.21494,-4.2149 z m 25.28965,0 c 0,-2.3182 -1.89673,-4.2149 -4.21494,-4.2149 -2.31822,0 -4.21494,1.8967 -4.21494,4.2149 0,2.3182 1.89672,4.2149 4.21494,4.2149 2.31821,0 4.21494,-1.8967 4.21494,-4.2149 z m 50.57928,0 c 0,-2.3182 -1.89672,-4.2149 -4.21494,-4.2149 -2.31822,0 -4.21494,1.8967 -4.21494,4.2149 0,2.3182 1.89672,4.2149 4.21494,4.2149 2.31822,0 4.21494,-1.8967 4.21494,-4.2149 z m 177.0275,0 c 0,-2.3182 -1.89672,-4.2149 -4.21494,-4.2149 -2.31821,0 -4.21494,1.8967 -4.21494,4.2149 0,2.3182 1.89673,4.2149 4.21494,4.2149 2.31822,0 4.21494,-1.8967 4.21494,-4.2149 z m -514.22275,-29.5046 c 0,-5.6199 -1.40498,-8.4299 -4.21494,-8.4299 -2.80996,0 -4.21494,2.81 -4.21494,8.4299 0,5.6199 1.40498,8.4299 4.21494,8.4299 2.80996,0 4.21494,-2.81 4.21494,-8.4299 z m 33.71953,4.215 c 0,-2.3183 -1.89672,-4.215 -4.21494,-4.215 -2.31821,0 -4.21494,1.8967 -4.21494,4.215 0,2.3182 1.89673,4.2149 4.21494,4.2149 2.31822,0 4.21494,-1.8967 4.21494,-4.2149 z m 227.60679,0 c 0,-2.3183 -1.89672,-4.215 -4.21494,-4.215 -2.31821,0 -4.21494,1.8967 -4.21494,4.215 0,2.3182 1.89673,4.2149 4.21494,4.2149 2.31822,0 4.21494,-1.8967 4.21494,-4.2149 z m 50.57929,0 c 0,-2.3183 -1.89672,-4.215 -4.21494,-4.215 -2.31822,0 -4.21494,1.8967 -4.21494,4.215 0,2.3182 1.89672,4.2149 4.21494,4.2149 2.31822,0 4.21494,-1.8967 4.21494,-4.2149 z m 25.28964,0 c 0,-2.3183 -1.89672,-4.215 -4.21494,-4.215 -2.31822,0 -4.21494,1.8967 -4.21494,4.215 0,2.3182 1.89672,4.2149 4.21494,4.2149 2.31822,0 4.21494,-1.8967 4.21494,-4.2149 z m 177.0275,0 c 0,-2.3183 -1.89672,-4.215 -4.21494,-4.215 -2.31821,0 -4.21494,1.8967 -4.21494,4.215 0,2.3182 1.89673,4.2149 4.21494,4.2149 2.31822,0 4.21494,-1.8967 4.21494,-4.2149 z m -505.79287,-25.2897 c 0,-2.3182 -1.89672,-4.2149 -4.21494,-4.2149 -2.31822,0 -4.21494,1.8967 -4.21494,4.2149 0,2.3182 1.89672,4.215 4.21494,4.215 2.31822,0 4.21494,-1.8968 4.21494,-4.215 z m 278.18609,0 c 0,-2.3182 -1.89673,-4.2149 -4.21494,-4.2149 -2.31822,0 -4.21494,1.8967 -4.21494,4.2149 0,2.3182 1.89672,4.215 4.21494,4.215 2.31821,0 4.21494,-1.8968 4.21494,-4.215 z m 227.60678,0 c 0,-2.3182 -1.89672,-4.2149 -4.21494,-4.2149 -2.31821,0 -4.21494,1.8967 -4.21494,4.2149 0,2.3182 1.89673,4.215 4.21494,4.215 2.31822,0 4.21494,-1.8968 4.21494,-4.215 z m -497.36299,-16.8597 c 0,-2.3183 -1.89672,-4.215 -4.21494,-4.215 -2.31822,0 -4.21494,-1.8967 -4.21494,-4.2149 0,-2.3182 -1.89672,-4.215 -4.21494,-4.215 -2.31822,0 -4.21494,1.8968 -4.21494,4.215 0,2.3182 1.89672,4.2149 4.21494,4.2149 2.31822,0 4.21494,1.8967 4.21494,4.215 0,2.3182 1.89672,4.2149 4.21494,4.2149 2.31822,0 4.21494,-1.8967 4.21494,-4.2149 z m 295.04585,-8.4299 c 0,-2.3182 -1.89672,-4.215 -4.21494,-4.215 -2.31822,0 -4.21494,1.8968 -4.21494,4.215 0,2.3182 1.89672,4.2149 4.21494,4.2149 2.31822,0 4.21494,-1.8967 4.21494,-4.2149 z m -278.18608,-25.2897 c 0,-2.3182 -1.89672,-4.2149 -4.21494,-4.2149 -2.31821,0 -4.21494,1.8967 -4.21494,4.2149 0,2.3183 1.89673,4.215 4.21494,4.215 2.31822,0 4.21494,-1.8967 4.21494,-4.215 z m 278.18608,0 c 0,-2.3182 -1.89672,-4.2149 -4.21494,-4.2149 -2.31822,0 -4.21494,1.8967 -4.21494,4.2149 0,2.3183 1.89672,4.215 4.21494,4.215 2.31822,0 4.21494,-1.8967 4.21494,-4.215 z m 25.28964,0 c 0,-2.3182 -1.89672,-4.2149 -4.21494,-4.2149 -2.31822,0 -4.21494,1.8967 -4.21494,4.2149 0,2.3183 1.89672,4.215 4.21494,4.215 2.31822,0 4.21494,-1.8967 4.21494,-4.215 z m 25.28965,-16.8597 c 0,-2.3182 -1.89673,-4.215 -4.21494,-4.215 -2.31822,0 -4.21495,1.8968 -4.21495,4.215 0,2.3182 1.89673,4.2149 4.21495,4.2149 2.31821,0 4.21494,-1.8967 4.21494,-4.2149 z m -354.05502,-8.4299 c 0,-2.3182 -1.89672,-4.2149 -4.21494,-4.2149 -2.31822,0 -4.21494,1.8967 -4.21494,4.2149 0,2.3182 1.89672,4.2149 4.21494,4.2149 2.31822,0 4.21494,-1.8967 4.21494,-4.2149 z m 25.28965,0 c 0,-2.3182 -1.89672,-4.2149 -4.21494,-4.2149 -2.31821,0 -4.21494,1.8967 -4.21494,4.2149 0,2.3182 1.89673,4.2149 4.21494,4.2149 2.31822,0 4.21494,-1.8967 4.21494,-4.2149 z m 278.18608,0 c 0,-2.3182 -1.89672,-4.2149 -4.21494,-4.2149 -2.31822,0 -4.21494,1.8967 -4.21494,4.2149 0,2.3182 1.89672,4.2149 4.21494,4.2149 2.31822,0 4.21494,-1.8967 4.21494,-4.2149 z m 25.28964,0 c 0,-2.3182 -1.89672,-4.2149 -4.21494,-4.2149 -2.31822,0 -4.21494,1.8967 -4.21494,4.2149 0,2.3182 1.89672,4.2149 4.21494,4.2149 2.31822,0 4.21494,-1.8967 4.21494,-4.2149 z m 25.28965,-8.4299 c 0,-2.3182 -1.89673,-4.2149 -4.21494,-4.2149 -2.31822,0 -4.21495,1.8967 -4.21495,4.2149 0,2.3182 1.89673,4.215 4.21495,4.215 2.31821,0 4.21494,-1.8968 4.21494,-4.215 z m -354.05502,-16.8597 c 0,-9.3666 -1.09276,-12.6449 -4.21494,-12.6449 -2.80996,0 -4.21494,2.81 -4.21494,8.4299 0,5.6199 -1.40498,8.4299 -4.21494,8.4299 -2.31822,0 -4.21494,1.8967 -4.21494,4.2149 0,2.81 2.80996,4.215 8.42988,4.215 8.11766,0 8.42988,-0.4684 8.42988,-12.6448 z m 303.47573,0 c 0,-2.3183 -1.89672,-4.215 -4.21494,-4.215 -2.31822,0 -4.21494,1.8967 -4.21494,4.215 0,2.3182 1.89672,4.2149 4.21494,4.2149 2.31822,0 4.21494,-1.8967 4.21494,-4.2149 z m 59.00917,0 c 0,-3.1222 -3.27829,-4.215 -12.64482,-4.215 -9.36654,0 -12.64483,1.0928 -12.64483,4.215 0,3.1221 3.27829,4.2149 12.64483,4.2149 9.36653,0 12.64482,-1.0928 12.64482,-4.2149 z m -387.77454,-21.0748 c 0,-5.6199 -1.40498,-8.4298 -4.21494,-8.4298 -2.80996,0 -4.21494,2.8099 -4.21494,8.4298 0,5.62 1.40498,8.4299 4.21494,8.4299 2.80996,0 4.21494,-2.8099 4.21494,-8.4299 z m 25.28964,-4.2149 c 0,-2.3182 -1.89672,-4.2149 -4.21494,-4.2149 -2.31822,0 -4.21494,1.8967 -4.21494,4.2149 0,2.3182 1.89672,4.2149 4.21494,4.2149 2.31822,0 4.21494,-1.8967 4.21494,-4.2149 z m 25.28965,0 c 0,-2.3182 -1.89672,-4.2149 -4.21494,-4.2149 -2.31821,0 -4.21494,1.8967 -4.21494,4.2149 0,2.3182 1.89673,4.2149 4.21494,4.2149 2.31822,0 4.21494,-1.8967 4.21494,-4.2149 z m 303.47572,0 c 0,-2.3182 -1.89672,-4.2149 -4.21494,-4.2149 -2.31822,0 -4.21494,1.8967 -4.21494,4.2149 0,2.3182 1.89672,4.2149 4.21494,4.2149 2.31822,0 4.21494,-1.8967 4.21494,-4.2149 z m 25.28965,0 c 0,-2.3182 -1.89673,-4.2149 -4.21494,-4.2149 -2.31822,0 -4.21495,1.8967 -4.21495,4.2149 0,2.3182 1.89673,4.2149 4.21495,4.2149 2.31821,0 4.21494,-1.8967 4.21494,-4.2149 z m -8.42989,-16.8598 c 0,-2.3182 -1.89672,-4.2149 -4.21494,-4.2149 -2.31821,0 -4.21494,1.8967 -4.21494,4.2149 0,2.3183 1.89673,4.215 4.21494,4.215 2.31822,0 4.21494,-1.8967 4.21494,-4.215 z m -379.34465,-8.4298 c 0,-2.3183 -1.89673,-4.215 -4.21494,-4.215 -2.31822,0 -4.21494,1.8967 -4.21494,4.215 0,2.3182 1.89672,4.2149 4.21494,4.2149 2.31821,0 4.21494,-1.8967 4.21494,-4.2149 z m 33.71952,0 c 0,-2.3183 -1.89672,-4.215 -4.21494,-4.215 -2.31822,0 -4.21494,1.8967 -4.21494,4.215 0,2.3182 1.89672,4.2149 4.21494,4.2149 2.31822,0 4.21494,-1.8967 4.21494,-4.2149 z m 25.28965,0 c 0,-2.3183 -1.89672,-4.215 -4.21494,-4.215 -2.31821,0 -4.21494,1.8967 -4.21494,4.215 0,2.3182 1.89673,4.2149 4.21494,4.2149 2.31822,0 4.21494,-1.8967 4.21494,-4.2149 z m 303.47572,0 c 0,-2.3183 -1.89672,-4.215 -4.21494,-4.215 -2.31822,0 -4.21494,1.8967 -4.21494,4.215 0,2.3182 1.89672,4.2149 4.21494,4.2149 2.31822,0 4.21494,-1.8967 4.21494,-4.2149 z m 177.0275,0 c 0,-2.3183 -1.89672,-4.215 -4.21494,-4.215 -2.31821,0 -4.21494,1.8967 -4.21494,4.215 0,2.3182 1.89673,4.2149 4.21494,4.2149 2.31822,0 4.21494,-1.8967 4.21494,-4.2149 z m -505.79287,-25.2897 c 0,-2.8099 -2.80996,-4.2149 -8.42988,-4.2149 -5.61992,0 -8.42988,1.405 -8.42988,4.2149 0,2.81 2.80996,4.215 8.42988,4.215 5.61992,0 8.42988,-1.405 8.42988,-4.215 z m 244.46656,0 c 0,-2.3182 -1.89672,-4.2149 -4.21494,-4.2149 -2.31822,0 -4.21494,-1.8967 -4.21494,-4.215 0,-2.3182 -1.89672,-4.2149 -4.21494,-4.2149 -2.31822,0 -4.21494,1.8967 -4.21494,4.2149 0,2.3183 -1.89672,4.215 -4.21494,4.215 -2.31822,0 -4.21494,1.8967 -4.21494,4.2149 0,3.1222 3.27829,4.215 12.64482,4.215 9.36653,0 12.64482,-1.0928 12.64482,-4.215 z m -236.03668,-25.2896 c 0,-2.3182 -1.89672,-4.215 -4.21494,-4.215 -2.31822,0 -4.21494,1.8968 -4.21494,4.215 0,2.3182 1.89672,4.2149 4.21494,4.2149 2.31822,0 4.21494,-1.8967 4.21494,-4.2149 z m 295.04585,0 c 0,-2.3182 -1.89672,-4.215 -4.21494,-4.215 -2.31822,0 -4.21494,1.8968 -4.21494,4.215 0,2.3182 1.89672,4.2149 4.21494,4.2149 2.31822,0 4.21494,-1.8967 4.21494,-4.2149 z m 202.31714,0 c 0,-2.3182 -1.89672,-4.215 -4.21494,-4.215 -2.31821,0 -4.21494,1.8968 -4.21494,4.215 0,2.3182 1.89673,4.2149 4.21494,4.2149 2.31822,0 4.21494,-1.8967 4.21494,-4.2149 z m -202.31714,-16.8598 c 0,-2.3182 -1.89672,-4.2149 -4.21494,-4.2149 -2.80996,0 -4.21494,-2.81 -4.21494,-8.4299 0,-5.6199 -1.40498,-8.4299 -4.21494,-8.4299 -3.12218,0 -4.21494,-3.2783 -4.21494,-12.6448 v -12.6448 h -12.64482 -12.64483 v 12.6448 12.6448 h 12.64483 c 12.17649,0 12.64482,0.3122 12.64482,8.4299 0,5.6199 1.40498,8.4299 4.21494,8.4299 2.31822,0 4.21494,1.8967 4.21494,4.2149 0,2.3182 1.89672,4.215 4.21494,4.215 2.31822,0 4.21494,-1.8968 4.21494,-4.215 z m -278.18608,-8.4299 c 0,-2.3182 -1.89672,-4.2149 -4.21494,-4.2149 -2.31821,0 -4.21494,1.8967 -4.21494,4.2149 0,2.3183 1.89673,4.215 4.21494,4.215 2.31822,0 4.21494,-1.8967 4.21494,-4.215 z m -16.85977,-8.4298 c 0,-3.1222 3.27829,-4.215 12.64483,-4.215 h 12.64483 v -16.8597 c 0,-13.1132 -0.93666,-16.8598 -4.21494,-16.8598 -2.31822,0 -4.21495,1.8967 -4.21495,4.2149 0,2.81 -2.80996,4.215 -8.42988,4.215 -8.11767,0 -8.42989,0.4683 -8.42989,12.6448 0,9.3665 -1.09276,12.6448 -4.21494,12.6448 -2.31822,0 -4.21494,1.8967 -4.21494,4.215 0,2.3182 1.89672,4.2149 4.21494,4.2149 2.31822,0 4.21494,-1.8967 4.21494,-4.2149 z m -8.42988,-37.9345 c 0,-5.6199 -1.40498,-8.4299 -4.21494,-8.4299 -2.80996,0 -4.21494,2.81 -4.21494,8.4299 0,5.6199 1.40498,8.4299 4.21494,8.4299 2.80996,0 4.21494,-2.81 4.21494,-8.4299 z m 295.04585,-4.215 c 0,-2.3182 -1.89672,-4.2149 -4.21494,-4.2149 -2.31822,0 -4.21494,1.8967 -4.21494,4.2149 0,2.3183 1.89672,4.215 4.21494,4.215 2.31822,0 4.21494,-1.8967 4.21494,-4.215 z m -236.03667,-16.8597 c 0,-12.1765 -0.31222,-12.6448 -8.42988,-12.6448 -7.49323,0 -8.42988,0.9366 -8.42988,8.4298 0,5.62 1.40498,8.4299 4.21494,8.4299 2.31821,0 4.21494,1.8967 4.21494,4.215 0,2.3182 1.89672,4.2149 4.21494,4.2149 3.12218,0 4.21494,-3.2783 4.21494,-12.6448 z m -59.00918,0 c 0,-2.3182 -1.89672,-4.215 -4.21494,-4.215 -2.31822,0 -4.21494,1.8968 -4.21494,4.215 0,2.3182 1.89672,4.2149 4.21494,4.2149 2.31822,0 4.21494,-1.8967 4.21494,-4.2149 z m 75.86894,-8.4299 c 0,-2.3182 -1.89672,-4.2149 -4.21494,-4.2149 -2.31822,0 -4.21494,1.8967 -4.21494,4.2149 0,2.3182 1.89672,4.2149 4.21494,4.2149 2.31822,0 4.21494,-1.8967 4.21494,-4.2149 z m 177.0275,0 c 0,-2.3182 -1.89672,-4.2149 -4.21494,-4.2149 -2.31821,0 -4.21494,1.8967 -4.21494,4.2149 0,2.3182 1.89673,4.2149 4.21494,4.2149 2.31822,0 4.21494,-1.8967 4.21494,-4.2149 z m -185.45738,-21.0747 c 0,-5.6199 -1.40498,-8.4299 -4.21494,-8.4299 -2.31822,0 -4.21494,1.8967 -4.21494,4.215 0,2.3182 -1.89672,4.2149 -4.21494,4.2149 -2.31822,0 -4.21494,1.8967 -4.21494,4.2149 0,2.81 2.80996,4.215 8.42988,4.215 7.49323,0 8.42988,-0.9367 8.42988,-8.4299 z m 33.71952,-4.2149 c 0,-2.3183 -1.89672,-4.215 -4.21494,-4.215 -2.31821,0 -4.21494,1.8967 -4.21494,4.215 0,2.3182 1.89673,4.2149 4.21494,4.2149 2.31822,0 4.21494,-1.8967 4.21494,-4.2149 z m 25.28965,0 c 0,-2.3183 1.89672,-4.215 4.21494,-4.215 2.31822,0 4.21494,-1.8967 4.21494,-4.2149 0,-2.3182 -1.89672,-4.215 -4.21494,-4.215 -2.31822,0 -4.21494,1.8968 -4.21494,4.215 0,2.3182 -1.89673,4.2149 -4.21494,4.2149 -2.31822,0 -4.21494,1.8967 -4.21494,4.215 0,2.3182 1.89672,4.2149 4.21494,4.2149 2.31821,0 4.21494,-1.8967 4.21494,-4.2149 z m 75.86893,0 c 0,-2.3183 1.89672,-4.215 4.21494,-4.215 2.31821,0 4.21494,-1.8967 4.21494,-4.2149 0,-2.3182 -1.89673,-4.215 -4.21494,-4.215 -2.31822,0 -4.21494,-1.8967 -4.21494,-4.2149 0,-2.3182 -1.89673,-4.2149 -4.21494,-4.2149 -2.31822,0 -4.21494,1.8967 -4.21494,4.2149 0,2.3182 1.89672,4.2149 4.21494,4.2149 2.31821,0 4.21494,1.8968 4.21494,4.215 0,2.3182 -1.89673,4.2149 -4.21494,4.2149 -2.31822,0 -4.21494,1.8967 -4.21494,4.215 0,2.3182 1.89672,4.2149 4.21494,4.2149 2.31821,0 4.21494,-1.8967 4.21494,-4.2149 z m 50.57928,0 c 0,-2.3183 -1.89672,-4.215 -4.21494,-4.215 -2.31821,0 -4.21494,1.8967 -4.21494,4.215 0,2.3182 1.89673,4.2149 4.21494,4.2149 2.31822,0 4.21494,-1.8967 4.21494,-4.2149 z m -101.15857,-25.2897 c 0,-3.2783 -3.74661,-4.2149 -16.85976,-4.2149 -13.11315,0 -16.85976,0.9366 -16.85976,4.2149 0,3.2783 3.74661,4.215 16.85976,4.215 13.11315,0 16.85976,-0.9367 16.85976,-4.215 z m 33.71952,0 c 0,-2.3182 -1.89672,-4.2149 -4.21494,-4.2149 -2.31821,0 -4.21494,1.8967 -4.21494,4.2149 0,2.3182 1.89673,4.215 4.21494,4.215 2.31822,0 4.21494,-1.8968 4.21494,-4.215 z m 42.14941,0 c 0,-2.3182 -1.89672,-4.2149 -4.21494,-4.2149 -2.31822,0 -4.21494,1.8967 -4.21494,4.2149 0,2.3182 1.89672,4.215 4.21494,4.215 2.31822,0 4.21494,-1.8968 4.21494,-4.215 z m -202.31715,-25.2896 c 0,-2.3182 -1.89672,-4.215 -4.21494,-4.215 -2.31821,0 -4.21494,1.8968 -4.21494,4.215 0,2.3182 1.89673,4.2149 4.21494,4.2149 2.31822,0 4.21494,-1.8967 4.21494,-4.2149 z m 109.58846,0 c 0,-2.3182 -1.89672,-4.215 -4.21494,-4.215 -2.31822,0 -4.21494,1.8968 -4.21494,4.215 0,2.3182 1.89672,4.2149 4.21494,4.2149 2.31822,0 4.21494,-1.8967 4.21494,-4.2149 z m 42.1494,-8.4299 c 0,-2.81 -2.80996,-4.2149 -8.42988,-4.2149 -5.61992,0 -8.42988,1.4049 -8.42988,4.2149 0,2.81 2.80996,4.2149 8.42988,4.2149 5.61992,0 8.42988,-1.4049 8.42988,-4.2149 z m -151.73786,-16.8598 c 0,-2.3182 -1.89672,-4.2149 -4.21494,-4.2149 -2.31821,0 -4.21494,1.8967 -4.21494,4.2149 0,2.3182 1.89673,4.215 4.21494,4.215 2.31822,0 4.21494,-1.8968 4.21494,-4.215 z m -8.42988,708.11 c 0,-2.3182 1.89673,-4.2149 4.21494,-4.2149 2.31822,0 4.21494,1.8967 4.21494,4.2149 0,2.3183 -1.89672,4.215 -4.21494,4.215 -2.31821,0 -4.21494,-1.8967 -4.21494,-4.215 z m 252.89644,0 c 0,-2.3182 1.89672,-4.2149 4.21494,-4.2149 2.31821,0 4.21494,1.8967 4.21494,4.2149 0,2.3183 -1.89673,4.215 -4.21494,4.215 -2.31822,0 -4.21494,-1.8967 -4.21494,-4.215 z m -177.02751,-25.2896 c 0,-2.3182 1.89673,-4.2149 4.21494,-4.2149 2.31822,0 4.21494,1.8967 4.21494,4.2149 0,2.3182 -1.89672,4.2149 -4.21494,4.2149 -2.31821,0 -4.21494,-1.8967 -4.21494,-4.2149 z m 126.44822,0 c 0,-2.3182 1.89672,-4.2149 4.21494,-4.2149 2.31822,0 4.21494,1.8967 4.21494,4.2149 0,2.3182 -1.89672,4.2149 -4.21494,4.2149 -2.31822,0 -4.21494,-1.8967 -4.21494,-4.2149 z m 42.1494,-25.2896 c 0,-16.8598 0.84299,-21.0747 4.21494,-21.0747 2.31822,0 4.21495,-1.8968 4.21495,-4.215 0,-2.3182 -1.89673,-4.2149 -4.21495,-4.2149 -2.31821,0 -4.21494,-1.8968 -4.21494,-4.215 0,-2.3182 1.89673,-4.2149 4.21494,-4.2149 2.31822,0 4.21495,1.8967 4.21495,4.2149 0,2.3182 1.89672,4.215 4.21494,4.215 2.31821,0 4.21494,1.8967 4.21494,4.2149 0,2.3182 -1.89673,4.215 -4.21494,4.215 -3.37196,0 -4.21494,4.2149 -4.21494,21.0747 0,16.8597 -0.84299,21.0747 -4.21495,21.0747 -3.37195,0 -4.21494,-4.215 -4.21494,-21.0747 z m -269.7562,0 c 0,-2.3183 1.89672,-4.215 4.21494,-4.215 2.31822,0 4.21494,1.8967 4.21494,4.215 0,2.3182 -1.89672,4.2149 -4.21494,4.2149 -2.31822,0 -4.21494,-1.8967 -4.21494,-4.2149 z m 252.89644,0 c 0,-2.3183 1.89673,-4.215 4.21494,-4.215 2.31822,0 4.21494,1.8967 4.21494,4.215 0,2.3182 -1.89672,4.2149 -4.21494,4.2149 -2.31821,0 -4.21494,-1.8967 -4.21494,-4.2149 z m -252.89644,-25.2897 c 0,-2.3182 1.89672,-4.2149 4.21494,-4.2149 2.31822,0 4.21494,1.8967 4.21494,4.2149 0,2.3182 -1.89672,4.215 -4.21494,4.215 -2.31822,0 -4.21494,-1.8968 -4.21494,-4.215 z m 25.28965,0 c 0,-2.3182 1.89673,-4.2149 4.21494,-4.2149 2.31822,0 4.21494,1.8967 4.21494,4.2149 0,2.3182 -1.89672,4.215 -4.21494,4.215 -2.31821,0 -4.21494,-1.8968 -4.21494,-4.215 z m 227.60679,0 c 0,-2.3182 1.89673,-4.2149 4.21494,-4.2149 2.31822,0 4.21494,1.8967 4.21494,4.2149 0,2.3182 -1.89672,4.215 -4.21494,4.215 -2.31821,0 -4.21494,-1.8968 -4.21494,-4.215 z m -227.60679,-25.2896 c 0,-2.3182 1.89673,-4.215 4.21494,-4.215 2.31822,0 4.21494,1.8968 4.21494,4.215 0,2.3182 -1.89672,4.2149 -4.21494,4.2149 -2.31821,0 -4.21494,-1.8967 -4.21494,-4.2149 z m 50.57929,0 c 0,-2.3182 1.89672,-4.215 4.21494,-4.215 2.31822,0 4.21494,1.8968 4.21494,4.215 0,2.3182 -1.89672,4.2149 -4.21494,4.2149 -2.31822,0 -4.21494,-1.8967 -4.21494,-4.2149 z m 177.0275,0 c 0,-2.3182 1.89673,-4.215 4.21494,-4.215 2.31822,0 4.21494,1.8968 4.21494,4.215 0,2.3182 -1.89672,4.2149 -4.21494,4.2149 -2.31821,0 -4.21494,-1.8967 -4.21494,-4.2149 z m 16.85976,0 c 0,-2.3182 1.89673,-4.215 4.21494,-4.215 2.31822,0 4.21495,1.8968 4.21495,4.215 0,2.3182 -1.89673,4.2149 -4.21495,4.2149 -2.31821,0 -4.21494,-1.8967 -4.21494,-4.2149 z m 185.45739,0 c 0,-2.3182 1.89672,-4.215 4.21494,-4.215 2.31822,0 4.21494,1.8968 4.21494,4.215 0,2.3182 -1.89672,4.2149 -4.21494,4.2149 -2.31822,0 -4.21494,-1.8967 -4.21494,-4.2149 z m -429.92394,-25.2897 c 0,-2.3182 1.89673,-4.2149 4.21494,-4.2149 2.31822,0 4.21494,1.8967 4.21494,4.2149 0,2.3182 -1.89672,4.215 -4.21494,4.215 -2.31821,0 -4.21494,-1.8968 -4.21494,-4.215 z m 50.57929,0 c 0,-2.3182 1.89672,-4.2149 4.21494,-4.2149 2.31822,0 4.21494,1.8967 4.21494,4.2149 0,2.3182 -1.89672,4.215 -4.21494,4.215 -2.31822,0 -4.21494,-1.8968 -4.21494,-4.215 z m -25.28964,-16.8597 c 0,-9.3666 1.09276,-12.6449 4.21494,-12.6449 3.12218,0 4.21494,3.2783 4.21494,12.6449 0,9.3665 -1.09276,12.6448 -4.21494,12.6448 -3.12218,0 -4.21494,-3.2783 -4.21494,-12.6448 z m -50.5793,-8.4299 c 0,-2.3182 1.89672,-4.215 4.21494,-4.215 2.31822,0 4.21494,1.8968 4.21494,4.215 0,2.3182 -1.89672,4.2149 -4.21494,4.2149 -2.31822,0 -4.21494,-1.8967 -4.21494,-4.2149 z m 75.86894,0 c 0,-2.3182 1.89672,-4.215 4.21494,-4.215 2.31822,0 4.21494,1.8968 4.21494,4.215 0,2.3182 -1.89672,4.2149 -4.21494,4.2149 -2.31822,0 -4.21494,-1.8967 -4.21494,-4.2149 z m 379.34465,0 c 0,-2.3182 1.89672,-4.215 4.21494,-4.215 2.31822,0 4.21494,1.8968 4.21494,4.215 0,2.3182 -1.89672,4.2149 -4.21494,4.2149 -2.31822,0 -4.21494,-1.8967 -4.21494,-4.2149 z m -455.21359,-25.2897 c 0,-2.3182 1.89672,-4.2149 4.21494,-4.2149 2.31822,0 4.21494,1.8967 4.21494,4.2149 0,2.3183 -1.89672,4.215 -4.21494,4.215 -2.31822,0 -4.21494,-1.8967 -4.21494,-4.215 z m 50.5793,0 c 0,-2.3182 1.89672,-4.2149 4.21494,-4.2149 2.31821,0 4.21494,1.8967 4.21494,4.2149 0,2.3183 -1.89673,4.215 -4.21494,4.215 -2.31822,0 -4.21494,-1.8967 -4.21494,-4.215 z m 101.15857,0 c 0,-2.3182 1.89672,-4.2149 4.21494,-4.2149 2.31822,0 4.21494,1.8967 4.21494,4.2149 0,2.3183 -1.89672,4.215 -4.21494,4.215 -2.31822,0 -4.21494,-1.8967 -4.21494,-4.215 z m 25.28964,0 c 0,-2.3182 1.89673,-4.2149 4.21494,-4.2149 2.31822,0 4.21494,1.8967 4.21494,4.2149 0,2.3183 -1.89672,4.215 -4.21494,4.215 -2.31821,0 -4.21494,-1.8967 -4.21494,-4.215 z m 252.89643,0 c 0,-2.3182 1.89673,-4.2149 4.21494,-4.2149 2.31822,0 4.21495,1.8967 4.21495,4.2149 0,2.3183 -1.89673,4.215 -4.21495,4.215 -2.31821,0 -4.21494,-1.8967 -4.21494,-4.215 z M 111.34909,515.57748 v -164.3826 h 29.50459 c 24.35298,0 29.50457,0.7359 29.50457,4.2149 0,2.3182 1.89672,4.2149 4.21494,4.2149 2.31822,0 4.21494,1.8968 4.21494,4.215 0,2.3182 -1.89672,4.2149 -4.21494,4.2149 -2.80996,0 -4.21494,2.81 -4.21494,8.4299 0,5.6199 1.40498,8.4299 4.21494,8.4299 2.31822,0 4.21494,1.8967 4.21494,4.2149 0,2.3182 -1.89672,4.215 -4.21494,4.215 -3.37195,0 -4.21494,4.2149 -4.21494,21.0747 0,16.8597 0.84299,21.0747 4.21494,21.0747 2.31822,0 4.21494,1.8967 4.21494,4.2149 0,2.3182 -1.89672,4.2149 -4.21494,4.2149 -3.57631,0 -4.21494,7.0249 -4.21494,46.3644 0,39.3394 0.63863,46.3643 4.21494,46.3643 2.31822,0 4.21494,1.8968 4.21494,4.215 0,2.3182 -1.89672,4.2149 -4.21494,4.2149 -3.51245,0 -4.21494,5.6199 -4.21494,33.7195 0,28.0996 0.70249,33.7196 4.21494,33.7196 2.31822,0 4.21494,1.8967 4.21494,4.2149 0,2.3182 -1.89672,4.2149 -4.21494,4.2149 -3.27829,0 -4.21494,3.7467 -4.21494,16.8598 0,13.1132 0.93665,16.8598 4.21494,16.8598 2.31822,0 4.21494,1.8967 4.21494,4.2149 0,2.3182 -1.89672,4.215 -4.21494,4.215 -2.31822,0 -4.21494,1.8967 -4.21494,4.2149 0,2.3182 1.89672,4.2149 4.21494,4.2149 2.31822,0 4.21494,1.8968 4.21494,4.215 0,3.5124 -5.61992,4.2149 -33.71951,4.2149 h -33.71953 z m 16.85977,151.7379 c 0,-2.3182 -1.89673,-4.2149 -4.21494,-4.2149 -2.31822,0 -4.21494,1.8967 -4.21494,4.2149 0,2.3182 1.89672,4.2149 4.21494,4.2149 2.31821,0 4.21494,-1.8967 4.21494,-4.2149 z m 0,-25.2896 c 0,-2.3183 -1.89673,-4.215 -4.21494,-4.215 -2.31822,0 -4.21494,1.8967 -4.21494,4.215 0,2.3182 1.89672,4.2149 4.21494,4.2149 2.31821,0 4.21494,-1.8967 4.21494,-4.2149 z m 25.28963,0 c 0,-2.3183 -1.89672,-4.215 -4.21494,-4.215 -2.31822,0 -4.21493,1.8967 -4.21493,4.215 0,2.3182 1.89671,4.2149 4.21493,4.2149 2.31822,0 4.21494,-1.8967 4.21494,-4.2149 z m 0,-25.2897 c 0,-2.3182 -1.89672,-4.2149 -4.21494,-4.2149 -2.31822,0 -4.21493,1.8967 -4.21493,4.2149 0,2.3182 1.89671,4.2149 4.21493,4.2149 2.31822,0 4.21494,-1.8967 4.21494,-4.2149 z m -25.28963,-25.2896 c 0,-2.3183 -1.89673,-4.215 -4.21494,-4.215 -2.31822,0 -4.21494,1.8967 -4.21494,4.215 0,2.3182 1.89672,4.2149 4.21494,4.2149 2.31821,0 4.21494,-1.8967 4.21494,-4.2149 z m 25.28963,0 c 0,-2.3183 -1.89672,-4.215 -4.21494,-4.215 -2.31822,0 -4.21493,1.8967 -4.21493,4.215 0,2.3182 1.89671,4.2149 4.21493,4.2149 2.31822,0 4.21494,-1.8967 4.21494,-4.2149 z m 0,-25.2897 c 0,-2.3182 -1.89672,-4.2149 -4.21494,-4.2149 -2.31822,0 -4.21493,1.8967 -4.21493,4.2149 0,2.3182 1.89671,4.215 4.21493,4.215 2.31822,0 4.21494,-1.8968 4.21494,-4.215 z m -25.28963,-25.2896 c 0,-2.3182 -1.89673,-4.215 -4.21494,-4.215 -2.31822,0 -4.21494,1.8968 -4.21494,4.215 0,2.3182 1.89672,4.2149 4.21494,4.2149 2.31821,0 4.21494,-1.8967 4.21494,-4.2149 z m 25.28963,0 c 0,-2.3182 -1.89672,-4.215 -4.21494,-4.215 -2.31822,0 -4.21493,1.8968 -4.21493,4.215 0,2.3182 1.89671,4.2149 4.21493,4.2149 2.31822,0 4.21494,-1.8967 4.21494,-4.2149 z m -25.28963,-50.5793 c 0,-2.3182 -1.89673,-4.2149 -4.21494,-4.2149 -2.31822,0 -4.21494,1.8967 -4.21494,4.2149 0,2.3182 1.89672,4.2149 4.21494,4.2149 2.31821,0 4.21494,-1.8967 4.21494,-4.2149 z m 0,-25.2896 c 0,-2.3183 -1.89673,-4.215 -4.21494,-4.215 -2.31822,0 -4.21494,1.8967 -4.21494,4.215 0,2.3182 1.89672,4.2149 4.21494,4.2149 2.31821,0 4.21494,-1.8967 4.21494,-4.2149 z m 25.28963,0 c 0,-2.3183 -1.89672,-4.215 -4.21494,-4.215 -2.31822,0 -4.21493,1.8967 -4.21493,4.215 0,2.3182 1.89671,4.2149 4.21493,4.2149 2.31822,0 4.21494,-1.8967 4.21494,-4.2149 z m -25.28963,-25.2897 c 0,-2.3182 -1.89673,-4.2149 -4.21494,-4.2149 -2.31822,0 -4.21494,1.8967 -4.21494,4.2149 0,2.3182 1.89672,4.2149 4.21494,4.2149 2.31821,0 4.21494,-1.8967 4.21494,-4.2149 z m 25.28963,0 c 0,-2.3182 -1.89672,-4.2149 -4.21494,-4.2149 -2.31822,0 -4.21493,1.8967 -4.21493,4.2149 0,2.3182 1.89671,4.2149 4.21493,4.2149 2.31822,0 4.21494,-1.8967 4.21494,-4.2149 z m -25.28963,-25.2896 c 0,-2.3183 -1.89673,-4.215 -4.21494,-4.215 -2.31822,0 -4.21494,1.8967 -4.21494,4.215 0,2.3182 1.89672,4.2149 4.21494,4.2149 2.31821,0 4.21494,-1.8967 4.21494,-4.2149 z m 25.28963,0 c 0,-2.3183 -1.89672,-4.215 -4.21494,-4.215 -2.31822,0 -4.21493,1.8967 -4.21493,4.215 0,2.3182 1.89671,4.2149 4.21493,4.2149 2.31822,0 4.21494,-1.8967 4.21494,-4.2149 z m -25.28963,-25.2897 c 0,-2.3182 -1.89673,-4.2149 -4.21494,-4.2149 -2.31822,0 -4.21494,1.8967 -4.21494,4.2149 0,2.3182 1.89672,4.215 4.21494,4.215 2.31821,0 4.21494,-1.8968 4.21494,-4.215 z m 0,-25.2896 c 0,-2.3182 -1.89673,-4.215 -4.21494,-4.215 -2.31822,0 -4.21494,1.8968 -4.21494,4.215 0,2.3182 1.89672,4.2149 4.21494,4.2149 2.31821,0 4.21494,-1.8967 4.21494,-4.2149 z m 25.28963,0 c 0,-2.3182 -1.89672,-4.215 -4.21494,-4.215 -2.31822,0 -4.21493,1.8968 -4.21493,4.215 0,2.3182 1.89671,4.2149 4.21493,4.2149 2.31822,0 4.21494,-1.8967 4.21494,-4.2149 z m 109.58845,303.4757 v -12.6448 h 12.64482 12.64483 v 12.6448 12.6448 h -12.64483 -12.64482 z m -67.43905,0 c 0,-2.3182 1.89673,-4.2149 4.21495,-4.2149 2.31821,0 4.21494,1.8967 4.21494,4.2149 0,2.3182 -1.89673,4.2149 -4.21494,4.2149 -2.31822,0 -4.21495,-1.8967 -4.21495,-4.2149 z m 25.28965,0 c 0,-2.3182 1.89672,-4.2149 4.21494,-4.2149 2.31822,0 4.21494,1.8967 4.21494,4.2149 0,2.3182 -1.89672,4.2149 -4.21494,4.2149 -2.31822,0 -4.21494,-1.8967 -4.21494,-4.2149 z m 25.28964,0 c 0,-2.3182 1.89672,-4.2149 4.21494,-4.2149 2.31822,0 4.21494,1.8967 4.21494,4.2149 0,2.3182 -1.89672,4.2149 -4.21494,4.2149 -2.31822,0 -4.21494,-1.8967 -4.21494,-4.2149 z m 227.6068,0 c 0,-2.3182 1.89672,-4.2149 4.21494,-4.2149 2.31822,0 4.21494,1.8967 4.21494,4.2149 0,2.3182 -1.89672,4.2149 -4.21494,4.2149 -2.31822,0 -4.21494,-1.8967 -4.21494,-4.2149 z m 50.57929,0 c 0,-2.3182 1.89672,-4.2149 4.21494,-4.2149 2.31821,0 4.21494,1.8967 4.21494,4.2149 0,2.3182 -1.89673,4.2149 -4.21494,4.2149 -2.31822,0 -4.21494,-1.8967 -4.21494,-4.2149 z m 252.89643,0 c 0,-2.3182 1.89672,-4.2149 4.21494,-4.2149 2.31822,0 4.21494,1.8967 4.21494,4.2149 0,2.3182 -1.89672,4.2149 -4.21494,4.2149 -2.31822,0 -4.21494,-1.8967 -4.21494,-4.2149 z m -556.37216,-25.2896 c 0,-2.3183 1.89672,-4.215 4.21494,-4.215 2.31822,0 4.21494,1.8967 4.21494,4.215 0,2.3182 -1.89672,4.2149 -4.21494,4.2149 -2.31822,0 -4.21494,-1.8967 -4.21494,-4.2149 z m 25.28964,0 c 0,-2.3183 1.89672,-4.215 4.21494,-4.215 2.31822,0 4.21494,1.8967 4.21494,4.215 0,2.3182 -1.89672,4.2149 -4.21494,4.2149 -2.31822,0 -4.21494,-1.8967 -4.21494,-4.2149 z m 151.73787,0 c 0,-2.3183 1.89672,-4.215 4.21494,-4.215 2.31822,0 4.21494,1.8967 4.21494,4.215 0,2.3182 -1.89672,4.2149 -4.21494,4.2149 -2.31822,0 -4.21494,-1.8967 -4.21494,-4.2149 z m 354.055,0 c 0,-2.3183 1.89673,-4.215 4.21494,-4.215 2.31822,0 4.21495,1.8967 4.21495,4.215 0,2.3182 -1.89673,4.2149 -4.21495,4.2149 -2.31821,0 -4.21494,-1.8967 -4.21494,-4.2149 z m 25.28965,0 c 0,-2.3183 1.89672,-4.215 4.21494,-4.215 2.31822,0 4.21494,1.8967 4.21494,4.215 0,2.3182 -1.89672,4.2149 -4.21494,4.2149 -2.31822,0 -4.21494,-1.8967 -4.21494,-4.2149 z m -556.37216,-25.2897 c 0,-2.3182 1.89672,-4.2149 4.21494,-4.2149 2.31822,0 4.21494,1.8967 4.21494,4.2149 0,2.3182 -1.89672,4.2149 -4.21494,4.2149 -2.31822,0 -4.21494,-1.8967 -4.21494,-4.2149 z m 25.28964,0 c 0,-2.3182 1.89672,-4.2149 4.21494,-4.2149 2.31822,0 4.21494,1.8967 4.21494,4.2149 0,2.3182 -1.89672,4.2149 -4.21494,4.2149 -2.31822,0 -4.21494,-1.8967 -4.21494,-4.2149 z m 455.21359,0 c 0,-2.3182 1.89672,-4.2149 4.21494,-4.2149 2.31822,0 4.21494,1.8967 4.21494,4.2149 0,2.3182 -1.89672,4.2149 -4.21494,4.2149 -2.31822,0 -4.21494,-1.8967 -4.21494,-4.2149 z m 25.28964,0 c 0,-2.3182 1.89672,-4.2149 4.21494,-4.2149 2.31822,0 4.21494,1.8967 4.21494,4.2149 0,2.3182 -1.89672,4.2149 -4.21494,4.2149 -2.31822,0 -4.21494,-1.8967 -4.21494,-4.2149 z m 50.57929,0 c 0,-2.3182 1.89672,-4.2149 4.21494,-4.2149 2.31822,0 4.21494,1.8967 4.21494,4.2149 0,2.3182 -1.89672,4.2149 -4.21494,4.2149 -2.31822,0 -4.21494,-1.8967 -4.21494,-4.2149 z m -581.66181,-25.2896 c 0,-2.3183 1.89673,-4.215 4.21495,-4.215 2.31821,0 4.21494,1.8967 4.21494,4.215 0,2.3182 -1.89673,4.2149 -4.21494,4.2149 -2.31822,0 -4.21495,-1.8967 -4.21495,-4.2149 z m 581.66181,0 c 0,-2.3183 1.89672,-4.215 4.21494,-4.215 2.31822,0 4.21494,1.8967 4.21494,4.215 0,2.3182 -1.89672,4.2149 -4.21494,4.2149 -2.31822,0 -4.21494,-1.8967 -4.21494,-4.2149 z m -581.66181,-25.2897 c 0,-2.3182 1.89673,-4.2149 4.21495,-4.2149 2.31821,0 4.21494,1.8967 4.21494,4.2149 0,2.3182 -1.89673,4.215 -4.21494,4.215 -2.31822,0 -4.21495,-1.8968 -4.21495,-4.215 z m 25.28965,0 c 0,-2.3182 1.89672,-4.2149 4.21494,-4.2149 2.31822,0 4.21494,1.8967 4.21494,4.2149 0,2.3182 -1.89672,4.215 -4.21494,4.215 -2.31822,0 -4.21494,-1.8968 -4.21494,-4.215 z m 480.50323,0 c 0,-2.3182 1.89672,-4.2149 4.21494,-4.2149 2.31822,0 4.21494,1.8967 4.21494,4.2149 0,2.3182 -1.89672,4.215 -4.21494,4.215 -2.31822,0 -4.21494,-1.8968 -4.21494,-4.215 z m 25.28964,0 c 0,-2.3182 1.89672,-4.2149 4.21494,-4.2149 2.31822,0 4.21494,1.8967 4.21494,4.2149 0,2.3182 -1.89672,4.215 -4.21494,4.215 -2.31822,0 -4.21494,-1.8968 -4.21494,-4.215 z m 25.28964,0 c 0,-2.3182 1.89673,-4.2149 4.21494,-4.2149 2.31822,0 4.21495,1.8967 4.21495,4.2149 0,2.3182 -1.89673,4.215 -4.21495,4.215 -2.31821,0 -4.21494,-1.8968 -4.21494,-4.215 z m -25.28964,-25.2896 c 0,-2.3182 1.89672,-4.215 4.21494,-4.215 2.31822,0 4.21494,1.8968 4.21494,4.215 0,2.3182 -1.89672,4.2149 -4.21494,4.2149 -2.31822,0 -4.21494,-1.8967 -4.21494,-4.2149 z m 25.28964,0 c 0,-2.3182 1.89673,-4.215 4.21494,-4.215 2.31822,0 4.21495,1.8968 4.21495,4.215 0,2.3182 -1.89673,4.2149 -4.21495,4.2149 -2.31821,0 -4.21494,-1.8967 -4.21494,-4.2149 z m -25.28964,-25.2897 c 0,-2.3182 1.89672,-4.2149 4.21494,-4.2149 2.31822,0 4.21494,1.8967 4.21494,4.2149 0,2.3183 -1.89672,4.215 -4.21494,4.215 -2.31822,0 -4.21494,-1.8967 -4.21494,-4.215 z m 25.28964,0 c 0,-2.3182 1.89673,-4.2149 4.21494,-4.2149 2.31822,0 4.21495,1.8967 4.21495,4.2149 0,2.3183 -1.89673,4.215 -4.21495,4.215 -2.31821,0 -4.21494,-1.8967 -4.21494,-4.215 z m -531.08251,-25.2896 c 0,-2.3182 1.89672,-4.2149 4.21494,-4.2149 2.31822,0 4.21494,1.8967 4.21494,4.2149 0,2.3182 -1.89672,4.2149 -4.21494,4.2149 -2.31822,0 -4.21494,-1.8967 -4.21494,-4.2149 z m 531.08251,0 c 0,-2.3182 1.89673,-4.2149 4.21494,-4.2149 2.31822,0 4.21495,1.8967 4.21495,4.2149 0,2.3182 -1.89673,4.2149 -4.21495,4.2149 -2.31821,0 -4.21494,-1.8967 -4.21494,-4.2149 z m 25.28965,0 c 0,-2.3182 1.89672,-4.2149 4.21494,-4.2149 2.31822,0 4.21494,1.8967 4.21494,4.2149 0,2.3182 -1.89672,4.2149 -4.21494,4.2149 -2.31822,0 -4.21494,-1.8967 -4.21494,-4.2149 z m -581.66181,-25.2896 c 0,-2.3183 1.89673,-4.215 4.21495,-4.215 2.31821,0 4.21494,1.8967 4.21494,4.215 0,2.3182 -1.89673,4.2149 -4.21494,4.2149 -2.31822,0 -4.21495,-1.8967 -4.21495,-4.2149 z m 581.66181,0 c 0,-2.3183 1.89672,-4.215 4.21494,-4.215 2.31822,0 4.21494,1.8967 4.21494,4.215 0,2.3182 -1.89672,4.2149 -4.21494,4.2149 -2.31822,0 -4.21494,-1.8967 -4.21494,-4.2149 z m -25.28965,-25.2897 c 0,-2.3182 1.89673,-4.2149 4.21494,-4.2149 2.31822,0 4.21495,1.8967 4.21495,4.2149 0,2.3182 -1.89673,4.2149 -4.21495,4.2149 -2.31821,0 -4.21494,-1.8967 -4.21494,-4.2149 z m -556.37216,-25.2896 c 0,-2.3183 1.89673,-4.215 4.21495,-4.215 2.31821,0 4.21494,1.8967 4.21494,4.215 0,2.3182 -1.89673,4.2149 -4.21494,4.2149 -2.31822,0 -4.21495,-1.8967 -4.21495,-4.2149 z m 25.28965,0 c 0,-2.3183 1.89672,-4.215 4.21494,-4.215 2.31822,0 4.21494,1.8967 4.21494,4.215 0,2.3182 -1.89672,4.2149 -4.21494,4.2149 -2.31822,0 -4.21494,-1.8967 -4.21494,-4.2149 z m 505.79287,0 c 0,-2.3183 1.89672,-4.215 4.21494,-4.215 2.31822,0 4.21494,1.8967 4.21494,4.215 0,2.3182 -1.89672,4.2149 -4.21494,4.2149 -2.31822,0 -4.21494,-1.8967 -4.21494,-4.2149 z m -531.08252,-25.2897 c 0,-2.3182 1.89673,-4.2149 4.21495,-4.2149 2.31821,0 4.21494,1.8967 4.21494,4.2149 0,2.3182 -1.89673,4.215 -4.21494,4.215 -2.31822,0 -4.21495,-1.8968 -4.21495,-4.215 z m 50.57929,0 c 0,-2.3182 1.89672,-4.2149 4.21494,-4.2149 2.31822,0 4.21494,1.8967 4.21494,4.2149 0,2.3182 -1.89672,4.215 -4.21494,4.215 -2.31822,0 -4.21494,-1.8968 -4.21494,-4.215 z m 455.21359,0 c 0,-2.3182 1.89672,-4.2149 4.21494,-4.2149 2.31822,0 4.21494,1.8967 4.21494,4.2149 0,2.3182 -1.89672,4.215 -4.21494,4.215 -2.31822,0 -4.21494,-1.8968 -4.21494,-4.215 z m 25.28964,0 c 0,-2.3182 1.89672,-4.2149 4.21494,-4.2149 2.31822,0 4.21494,1.8967 4.21494,4.2149 0,2.3182 -1.89672,4.215 -4.21494,4.215 -2.31822,0 -4.21494,-1.8968 -4.21494,-4.215 z m 25.28964,0 c 0,-2.3182 1.89673,-4.2149 4.21494,-4.2149 2.31822,0 4.21495,1.8967 4.21495,4.2149 0,2.3182 -1.89673,4.215 -4.21495,4.215 -2.31821,0 -4.21494,-1.8968 -4.21494,-4.215 z m -556.37216,-25.2896 c 0,-2.3182 1.89673,-4.215 4.21495,-4.215 2.31821,0 4.21494,1.8968 4.21494,4.215 0,2.3182 -1.89673,4.2149 -4.21494,4.2149 -2.31822,0 -4.21495,-1.8967 -4.21495,-4.2149 z m 480.50323,0 c 0,-2.3182 1.89673,-4.215 4.21495,-4.215 2.31821,0 4.21494,1.8968 4.21494,4.215 0,2.3182 -1.89673,4.2149 -4.21494,4.2149 -2.31822,0 -4.21495,-1.8967 -4.21495,-4.2149 z m 50.57929,0 c 0,-2.3182 1.89672,-4.215 4.21494,-4.215 2.31822,0 4.21494,1.8968 4.21494,4.215 0,2.3182 -1.89672,4.2149 -4.21494,4.2149 -2.31822,0 -4.21494,-1.8967 -4.21494,-4.2149 z M 111.34909,237.39148 v -88.5138 h 88.51375 88.51375 v 88.5138 88.5137 h -88.51375 -88.51375 z m 151.73785,0 v -63.2241 h -63.2241 -63.2241 v 63.2241 63.2241 h 63.2241 63.2241 z m -101.15857,0 v -37.9345 h 37.93447 37.93446 v 37.9345 37.9344 h -37.93446 -37.93447 z m 505.79287,0 v -88.5138 h 88.51375 88.51376 v 88.5138 88.5137 h -88.51376 -88.51375 z m 151.73786,0 v -63.2241 h -63.22411 -63.2241 v 63.2241 63.2241 h 63.2241 63.22411 z m -101.15857,0 v -37.9345 h 37.93446 37.93447 v 37.9345 37.9344 h -37.93447 -37.93446 z m -101.15857,-8.4299 c 0,-2.3182 1.89672,-4.215 4.21494,-4.215 2.31822,0 4.21494,1.8968 4.21494,4.215 0,2.3182 -1.89672,4.2149 -4.21494,4.2149 -2.31822,0 -4.21494,-1.8967 -4.21494,-4.2149 z m -244.46655,-42.1494 c 0,-2.3182 1.89672,-4.215 4.21494,-4.215 2.31821,0 4.21494,1.8968 4.21494,4.215 0,2.3182 -1.89673,4.2149 -4.21494,4.2149 -2.31822,0 -4.21494,-1.8967 -4.21494,-4.2149 z m 25.28964,-25.2897 c 0,-2.3182 1.89672,-4.2149 4.21494,-4.2149 2.31822,0 4.21494,1.8967 4.21494,4.2149 0,2.3182 -1.89672,4.215 -4.21494,4.215 -2.31822,0 -4.21494,-1.8968 -4.21494,-4.215 z m 25.28964,0 c 0,-2.3182 1.89673,-4.2149 4.21494,-4.2149 2.31822,0 4.21494,1.8967 4.21494,4.2149 0,2.3182 -1.89672,4.215 -4.21494,4.215 -2.31821,0 -4.21494,-1.8968 -4.21494,-4.215 z m 126.44822,0 c 0,-2.3182 1.89672,-4.2149 4.21494,-4.2149 2.31822,0 4.21494,1.8967 4.21494,4.2149 0,2.3182 -1.89672,4.215 -4.21494,4.215 -2.31822,0 -4.21494,-1.8968 -4.21494,-4.215 z"
       id="path1" /></g></svg>
